# Blender v2.78 (sub 0) OBJ File: 'EvonoveTry.blend'
# www.blender.org
mtllib QuadriUfficio.mtl
o QuadroIngresso1_005_Cube.317
v 0.128842 1.116378 4.849245
v 0.128842 2.116378 4.849245
v 0.128842 1.116378 4.869245
v 0.128842 2.116378 4.869245
v -0.659684 1.116378 4.849245
v -0.659684 2.116378 4.849245
v -0.659684 1.116378 4.869245
v -0.659684 2.116378 4.869245
vt 0.0000 0.0000
vt 0.0000 0.0000
vt 0.0000 0.0000
vt 0.0000 0.0000
vt 0.0000 0.0000
vt 0.0000 0.0000
vt 0.0000 0.0000
vt 0.9999 0.9999
vt 0.0001 0.0001
vt 0.9999 0.0001
vt 0.0000 0.0000
vt 0.0001 0.9999
vn 1.0000 0.0000 0.0000
vn 0.0000 0.0000 1.0000
vn -1.0000 0.0000 0.0000
vn 0.0000 0.0000 -1.0000
vn 0.0000 -1.0000 0.0000
vn 0.0000 1.0000 0.0000
g QuadroIngresso1_005_Cube.317_quadro
usemtl quadro
s off
f 2/1/1 3/2/1 1/3/1
f 4/4/2 7/5/2 3/2/2
f 8/6/3 5/7/3 7/5/3
f 6/8/4 1/9/4 5/10/4
f 7/5/5 1/3/5 3/2/5
f 4/4/6 6/11/6 8/6/6
f 2/1/1 4/4/1 3/2/1
f 4/4/2 8/6/2 7/5/2
f 8/6/3 6/11/3 5/7/3
f 6/8/4 2/12/4 1/9/4
f 7/5/5 5/7/5 1/3/5
f 4/4/6 2/1/6 6/11/6
o QuadroIngresso1_006_Cube.318
v 0.606869 1.116378 4.869245
v 0.606869 2.116378 4.869245
v 0.606869 1.116378 4.849245
v 0.606869 2.116378 4.849245
v 1.408895 1.116378 4.869245
v 1.408895 2.116378 4.869245
v 1.408895 1.116378 4.849245
v 1.408895 2.116378 4.849245
vt 0.0000 0.0000
vt 0.0000 0.0000
vt 0.0000 0.0000
vt 0.9999 0.9999
vt 0.0001 0.0001
vt 0.9999 0.0001
vt 0.0000 0.0000
vt 0.0000 0.0000
vt 0.0000 0.0000
vt 0.0000 0.0000
vt 0.0000 0.0000
vt 0.0001 0.9999
vn -1.0000 0.0000 0.0000
vn 0.0000 0.0000 -1.0000
vn 1.0000 0.0000 0.0000
vn 0.0000 0.0000 1.0000
vn 0.0000 -1.0000 0.0000
vn 0.0000 1.0000 0.0000
g QuadroIngresso1_006_Cube.318_quadro
usemtl quadro
s off
f 10/13/7 11/14/7 9/15/7
f 12/16/8 15/17/8 11/18/8
f 16/19/9 13/20/9 15/21/9
f 14/22/10 9/15/10 13/20/10
f 15/21/11 9/15/11 11/14/11
f 12/23/12 14/22/12 16/19/12
f 10/13/7 12/23/7 11/14/7
f 12/16/8 16/24/8 15/17/8
f 16/19/9 14/22/9 13/20/9
f 14/22/10 10/13/10 9/15/10
f 15/21/11 13/20/11 9/15/11
f 12/23/12 10/13/12 14/22/12
