# Blender v2.78 (sub 0) OBJ File: 'EvonoveTry.blend'
# www.blender.org
mtllib QuadroRiunioni.mtl
o QuadroIngresso1_004_Cube.316
v -4.086489 1.324880 -3.945719
v -4.086489 2.324880 -3.945719
v -4.066489 1.324880 -3.945719
v -4.066489 2.324880 -3.945719
v -4.086490 1.324880 -2.243567
v -4.086490 2.324880 -2.243567
v -4.066490 1.324880 -2.243567
v -4.066490 2.324880 -2.243567
vt 0.0000 0.0000
vt 0.0000 0.0000
vt 0.0000 0.0000
vt 0.9999 0.9999
vt 0.0001 0.0001
vt 0.9999 0.0001
vt 0.0000 0.0000
vt 0.0000 0.0000
vt 0.0000 0.0000
vt 0.0000 0.0000
vt 0.0000 0.0000
vt 0.0001 0.9999
vn 0.0000 0.0000 -1.0000
vn 1.0000 0.0000 0.0000
vn 0.0000 0.0000 1.0000
vn -1.0000 0.0000 -0.0000
vn 0.0000 -1.0000 0.0000
vn 0.0000 1.0000 0.0000
g QuadroIngresso1_004_Cube.316_quadro
usemtl quadro
s off
f 2/1/1 3/2/1 1/3/1
f 4/4/2 7/5/2 3/6/2
f 8/7/3 5/8/3 7/9/3
f 6/10/4 1/3/4 5/8/4
f 7/9/5 1/3/5 3/2/5
f 4/11/6 6/10/6 8/7/6
f 2/1/1 4/11/1 3/2/1
f 4/4/2 8/12/2 7/5/2
f 8/7/3 6/10/3 5/8/3
f 6/10/4 2/1/4 1/3/4
f 7/9/5 5/8/5 1/3/5
f 4/11/6 2/1/6 6/10/6
