# Blender v2.78 (sub 0) OBJ File: 'EvonoveTry.blend'
# www.blender.org
mtllib QuadriIngresso.mtl
o QuadroIngresso1_001_Cube.203
v 5.452102 1.116378 -5.283380
v 5.452102 2.116378 -5.283380
v 5.452102 1.116378 -5.263380
v 5.452102 2.116378 -5.263380
v 4.752102 1.116378 -5.283380
v 4.752102 2.116378 -5.283380
v 4.752102 1.116378 -5.263380
v 4.752102 2.116378 -5.263380
vt -0.4858 0.3206
vt -0.5040 0.3206
vt -0.5040 -0.3426
vt -0.4858 -0.3426
vt -0.4494 0.9838
vt -0.4676 0.9838
vt -0.4676 0.0364
vt -0.4494 0.0364
vt -0.4858 0.0364
vt -0.4676 0.0364
vt -0.4676 0.9838
vt -0.4858 0.9838
vt -0.5040 0.3206
vt -0.4858 0.3206
vt -0.4858 0.9838
vt -0.5040 0.9838
vt 0.8225 0.9838
vt 0.1865 0.9838
vt 0.1865 0.0364
vt 0.8225 0.0364
vt 0.1865 0.9838
vt 0.1865 0.0364
vn 0.0000 -1.0000 0.0000
vn 1.0000 0.0000 0.0000
vn -1.0000 0.0000 0.0000
vn 0.0000 1.0000 0.0000
vn 0.0000 0.0000 1.0000
vn -0.0000 0.0000 -1.0000
g QuadroIngresso1_001_Cube.203_quadro
usemtl quadro
s off
f 7/1/1 5/2/1 1/3/1 3/4/1
f 2/5/2 4/6/2 3/7/2 1/8/2
f 8/9/3 6/10/3 5/11/3 7/12/3
f 4/13/4 2/14/4 6/15/4 8/16/4
f 4/17/5 8/18/5 7/19/5 3/20/5
g QuadroIngresso1_001_Cube.203_Material
usemtl Material
f 6/21/6 2/5/6 1/8/6 5/22/6
o QuadroIngresso1_001.001_Cube.673
v 4.526248 1.116378 -5.283380
v 4.526248 2.116378 -5.283380
v 4.526248 1.116378 -5.263380
v 4.526248 2.116378 -5.263380
v 3.826248 1.116378 -5.283380
v 3.826248 2.116378 -5.283380
v 3.826248 1.116378 -5.263380
v 3.826248 2.116378 -5.263380
vt -0.4858 0.3206
vt -0.5040 0.3206
vt -0.5040 -0.3426
vt -0.4858 -0.3426
vt 0.1865 0.9838
vt -0.4494 0.9838
vt -0.4494 0.0364
vt 0.1865 0.0364
vt -0.4676 0.9838
vt -0.4676 0.0364
vt -0.4858 0.0364
vt -0.4676 0.0364
vt -0.4676 0.9838
vt -0.4858 0.9838
vt -0.5040 0.3206
vt -0.4858 0.3206
vt -0.4858 0.9838
vt -0.5040 0.9838
vt 0.8225 0.9838
vt 0.1865 0.9838
vt 0.1865 0.0364
vt 0.8225 0.0364
vn 0.0000 -1.0000 0.0000
vn -0.0000 0.0000 -1.0000
vn 1.0000 0.0000 0.0000
vn -1.0000 0.0000 0.0000
vn 0.0000 1.0000 0.0000
vn 0.0000 0.0000 1.0000
g QuadroIngresso1_001.001_Cube.673_quadro_naccio.jpg.001
usemtl quadro_naccio.jpg.001
s off
f 15/23/7 13/24/7 9/25/7 11/26/7
f 14/27/8 10/28/8 9/29/8 13/30/8
f 10/28/9 12/31/9 11/32/9 9/29/9
f 16/33/10 14/34/10 13/35/10 15/36/10
f 12/37/11 10/38/11 14/39/11 16/40/11
f 12/41/12 16/42/12 15/43/12 11/44/12
o QuadroIngresso1_001.002_Cube.674
v 6.380449 1.116378 -5.283380
v 6.380449 2.116378 -5.283380
v 6.380449 1.116378 -5.263380
v 6.380449 2.116378 -5.263380
v 5.680449 1.116378 -5.283380
v 5.680449 2.116378 -5.283380
v 5.680449 1.116378 -5.263380
v 5.680449 2.116378 -5.263380
vt -0.4858 0.3206
vt -0.5040 0.3206
vt -0.5040 -0.3426
vt -0.4858 -0.3426
vt -0.4494 0.9838
vt -0.4676 0.9838
vt -0.4676 0.0364
vt -0.4494 0.0364
vt -0.4858 0.0364
vt -0.4676 0.0364
vt -0.4676 0.9838
vt -0.4858 0.9838
vt -0.5040 0.3206
vt -0.4858 0.3206
vt -0.4858 0.9838
vt -0.5040 0.9838
vt 0.8225 0.9838
vt 0.1865 0.9838
vt 0.1865 0.0364
vt 0.8225 0.0364
vt 0.1865 0.9838
vt 0.1865 0.0364
vn 0.0000 -1.0000 0.0000
vn 1.0000 0.0000 0.0000
vn -1.0000 0.0000 0.0000
vn 0.0000 1.0000 0.0000
vn 0.0000 0.0000 1.0000
vn -0.0000 0.0000 -1.0000
g QuadroIngresso1_001.002_Cube.674_quadro_naccio.jpg.002
usemtl quadro_naccio.jpg.002
s off
f 23/45/13 21/46/13 17/47/13 19/48/13
f 18/49/14 20/50/14 19/51/14 17/52/14
f 24/53/15 22/54/15 21/55/15 23/56/15
f 20/57/16 18/58/16 22/59/16 24/60/16
f 20/61/17 24/62/17 23/63/17 19/64/17
g QuadroIngresso1_001.002_Cube.674_Material_naccio.jpg.002
usemtl Material_naccio.jpg.002
f 22/65/18 18/49/18 17/52/18 21/66/18
