# Blender v2.78 (sub 0) OBJ File: 'EvonoveTry.blend'
# www.blender.org
mtllib Cubo.mtl
o Cube.003_Cube.048
v 5.139745 1.220871 2.425304
v 5.139745 1.620871 2.425304
v 5.139745 1.220871 2.025304
v 5.139745 1.620871 2.025304
v 5.539745 1.220871 2.425304
v 5.539745 1.620871 2.425304
v 5.539745 1.220871 2.025304
v 5.539745 1.620871 2.025304
vn -1.0000 0.0000 0.0000
vn 0.0000 0.0000 -1.0000
vn 1.0000 0.0000 0.0000
vn 0.0000 0.0000 1.0000
vn 0.0000 -1.0000 0.0000
vn 0.0000 1.0000 0.0000
usemtl __Water_Sparkling_
s off
f 1//1 2//1 4//1 3//1
f 3//2 4//2 8//2 7//2
f 7//3 8//3 6//3 5//3
f 5//4 6//4 2//4 1//4
f 3//5 7//5 5//5 1//5
f 8//6 4//6 2//6 6//6
