# Blender v2.78 (sub 0) OBJ File: 'Evonove.blend'
# www.blender.org
mtllib Luci.mtl
o Cube.001_Cube.012
v -3.631432 2.474726 2.953694
v -3.631432 2.519207 2.953694
v -3.631432 2.474726 2.150328
v -3.631432 2.519207 2.150328
v -2.853614 2.474726 2.953694
v -2.853614 2.519207 2.953694
v -2.853614 2.474726 2.150328
v -2.853614 2.519207 2.150328
vn -1.0000 0.0000 0.0000
vn 0.0000 0.0000 -1.0000
vn 1.0000 0.0000 0.0000
vn 0.0000 0.0000 1.0000
vn 0.0000 -1.0000 0.0000
vn 0.0000 1.0000 0.0000
usemtl luceSoffitto
s off
f 1//1 2//1 4//1 3//1
f 3//2 4//2 8//2 7//2
f 7//3 8//3 6//3 5//3
f 5//4 6//4 2//4 1//4
f 3//5 7//5 5//5 1//5
f 8//6 4//6 2//6 6//6
o Cube.003_Cube.013
v 1.863530 2.480665 2.953694
v 1.863530 2.525146 2.953694
v 1.863530 2.480665 2.150328
v 1.863530 2.525146 2.150328
v 2.641348 2.480665 2.953694
v 2.641348 2.525146 2.953694
v 2.641348 2.480665 2.150328
v 2.641348 2.525146 2.150328
vn -1.0000 0.0000 0.0000
vn 0.0000 0.0000 -1.0000
vn 1.0000 0.0000 0.0000
vn 0.0000 0.0000 1.0000
vn 0.0000 -1.0000 0.0000
vn 0.0000 1.0000 0.0000
usemtl luceSoffitto
s off
f 9//7 10//7 12//7 11//7
f 11//8 12//8 16//8 15//8
f 15//9 16//9 14//9 13//9
f 13//10 14//10 10//10 9//10
f 11//11 15//11 13//11 9//11
f 16//12 12//12 10//12 14//12
o Cube.004_Cube.016
v 7.325822 2.483831 2.953694
v 7.325822 2.528311 2.953694
v 7.325822 2.483831 2.150328
v 7.325822 2.528311 2.150328
v 8.103641 2.483831 2.953694
v 8.103641 2.528311 2.953694
v 8.103641 2.483831 2.150328
v 8.103641 2.528311 2.150328
vn -1.0000 0.0000 0.0000
vn 0.0000 0.0000 -1.0000
vn 1.0000 0.0000 0.0000
vn 0.0000 0.0000 1.0000
vn 0.0000 -1.0000 0.0000
vn 0.0000 1.0000 0.0000
usemtl luceSoffitto
s off
f 17//13 18//13 20//13 19//13
f 19//14 20//14 24//14 23//14
f 23//15 24//15 22//15 21//15
f 21//16 22//16 18//16 17//16
f 19//17 23//17 21//17 17//17
f 24//18 20//18 18//18 22//18
o Cube.009_Cube.018
v -9.121704 2.471671 2.953694
v -9.121704 2.516152 2.953694
v -9.121704 2.471671 2.150328
v -9.121704 2.516152 2.150328
v -8.343885 2.471671 2.953694
v -8.343885 2.516152 2.953694
v -8.343885 2.471671 2.150328
v -8.343885 2.516152 2.150328
vn -1.0000 0.0000 0.0000
vn 0.0000 0.0000 -1.0000
vn 1.0000 0.0000 0.0000
vn 0.0000 0.0000 1.0000
vn 0.0000 -1.0000 0.0000
vn 0.0000 1.0000 0.0000
usemtl luceSoffitto
s off
f 25//19 26//19 28//19 27//19
f 27//20 28//20 32//20 31//20
f 31//21 32//21 30//21 29//21
f 29//22 30//22 26//22 25//22
f 27//23 31//23 29//23 25//23
f 32//24 28//24 26//24 30//24
o Cube.012_Cube.019
v -3.646931 2.484138 -3.432782
v -3.646931 2.528619 -3.432782
v -3.646931 2.484138 -4.236148
v -3.646931 2.528619 -4.236148
v -2.869113 2.484138 -3.432782
v -2.869113 2.528619 -3.432782
v -2.869113 2.484138 -4.236148
v -2.869113 2.528619 -4.236148
vn -1.0000 0.0000 0.0000
vn 0.0000 0.0000 -1.0000
vn 1.0000 0.0000 0.0000
vn 0.0000 0.0000 1.0000
vn 0.0000 -1.0000 0.0000
vn 0.0000 1.0000 0.0000
usemtl luceSoffitto
s off
f 33//25 34//25 36//25 35//25
f 35//26 36//26 40//26 39//26
f 39//27 40//27 38//27 37//27
f 37//28 38//28 34//28 33//28
f 35//29 39//29 37//29 33//29
f 40//30 36//30 34//30 38//30
o Cube.015_Cube.020
v 1.863530 2.482950 -3.304433
v 1.863530 2.527431 -3.304433
v 1.863530 2.482950 -4.107799
v 1.863530 2.527431 -4.107799
v 2.641348 2.482950 -3.304433
v 2.641348 2.527431 -3.304433
v 2.641348 2.482950 -4.107799
v 2.641348 2.527431 -4.107799
vn -1.0000 0.0000 0.0000
vn 0.0000 0.0000 -1.0000
vn 1.0000 0.0000 0.0000
vn 0.0000 0.0000 1.0000
vn 0.0000 -1.0000 0.0000
vn 0.0000 1.0000 0.0000
usemtl luceSoffitto
s off
f 41//31 42//31 44//31 43//31
f 43//32 44//32 48//32 47//32
f 47//33 48//33 46//33 45//33
f 45//34 46//34 42//34 41//34
f 43//35 47//35 45//35 41//35
f 48//36 44//36 42//36 46//36
o Cube.016_Cube.023
v 7.325822 2.478420 -3.304433
v 7.325822 2.522901 -3.304433
v 7.325822 2.478420 -4.107799
v 7.325822 2.522901 -4.107799
v 8.103641 2.478420 -3.304433
v 8.103641 2.522901 -3.304433
v 8.103641 2.478420 -4.107799
v 8.103641 2.522901 -4.107799
vn -1.0000 0.0000 0.0000
vn 0.0000 0.0000 -1.0000
vn 1.0000 0.0000 0.0000
vn 0.0000 0.0000 1.0000
vn 0.0000 -1.0000 0.0000
vn 0.0000 1.0000 0.0000
usemtl luceSoffitto
s off
f 49//37 50//37 52//37 51//37
f 51//38 52//38 56//38 55//38
f 55//39 56//39 54//39 53//39
f 53//40 54//40 50//40 49//40
f 51//41 55//41 53//41 49//41
f 56//42 52//42 50//42 54//42
o Cube.017_Cube.024
v -9.121704 2.460624 -3.304433
v -9.121704 2.505105 -3.304433
v -9.121704 2.460624 -4.107799
v -9.121704 2.505105 -4.107799
v -8.343885 2.460624 -3.304433
v -8.343885 2.505105 -3.304433
v -8.343885 2.460624 -4.107799
v -8.343885 2.505105 -4.107799
vn -1.0000 0.0000 0.0000
vn 0.0000 0.0000 -1.0000
vn 1.0000 0.0000 0.0000
vn 0.0000 0.0000 1.0000
vn 0.0000 -1.0000 0.0000
vn 0.0000 1.0000 0.0000
usemtl luceSoffitto
s off
f 57//43 58//43 60//43 59//43
f 59//44 60//44 64//44 63//44
f 63//45 64//45 62//45 61//45
f 61//46 62//46 58//46 57//46
f 59//47 63//47 61//47 57//47
f 64//48 60//48 58//48 62//48
