# Blender v2.78 (sub 0) OBJ File: 'EvonoveTry.blend'
# www.blender.org
mtllib PareteBagnoCentrale.mtl
o Cube_045_Cube.133
v -9.857114 -0.004058 1.223448
v -9.857114 2.495942 1.223448
v -9.957114 -0.004058 1.223448
v -9.957114 2.495942 1.223448
v -9.857114 -0.004058 -1.776552
v -9.857114 2.495942 -1.776552
v -9.957114 -0.004058 -1.776552
v -9.957114 2.495942 -1.776552
v -9.957114 -0.004058 0.172627
v -9.957114 -0.004058 0.755456
v -9.957114 2.495942 0.755456
v -9.957114 2.495942 0.172627
v -9.857114 -0.004058 0.755456
v -9.857114 -0.004058 0.172627
v -9.857114 2.495942 0.172627
v -9.857114 2.495942 0.755456
v -9.857114 1.971351 1.223448
v -9.857114 2.494359 1.223448
v -9.957114 2.494359 1.223448
v -9.957114 1.971351 1.223448
v -9.957114 2.494359 -1.776552
v -9.957114 1.971351 -1.776552
v -9.857114 2.494359 -1.776552
v -9.857114 1.971351 -1.776552
v -9.857114 2.494359 0.172627
v -9.857114 1.971351 0.172627
v -9.857114 2.494359 0.755456
v -9.857114 1.971351 0.755456
v -9.957114 2.494359 0.755456
v -9.957114 1.971351 0.755456
v -9.957114 2.494359 0.172627
v -9.957114 1.971351 0.172627
v -9.957114 2.495942 -0.598328
v -9.957114 2.495942 -1.248055
v -9.857114 -0.004058 -0.598328
v -9.857114 -0.004058 -1.248055
v -9.957114 -0.004058 -1.248055
v -9.957114 -0.004058 -0.598328
v -9.857114 2.495942 -1.248055
v -9.857114 2.495942 -0.598328
v -9.857114 1.971351 -1.248055
v -9.857114 1.971351 -0.598328
v -9.857114 2.494359 -1.248055
v -9.857114 2.494359 -0.598328
v -9.957114 1.971351 -0.598328
v -9.957114 1.971351 -1.248055
v -9.957114 2.494359 -0.598328
v -9.957114 2.494359 -1.248055
vn 0.0000 0.0000 1.0000
vn -1.0000 0.0000 0.0000
vn 0.0000 0.0000 -1.0000
vn 1.0000 0.0000 0.0000
vn 0.0000 -1.0000 0.0000
vn 0.0000 1.0000 0.0000
g Cube_045_Cube.133_PareteEsterna
usemtl PareteEsterna
s off
f 2//1 19//1 18//1
f 34//2 21//2 48//2
f 8//3 23//3 21//3
f 16//4 18//4 27//4
f 7//5 36//5 37//5
f 11//6 2//6 16//6
f 12//6 40//6 33//6
f 11//6 15//6 12//6
f 10//5 1//5 3//5
f 40//4 25//4 44//4
f 15//4 27//4 25//4
f 4//2 29//2 19//2
f 11//2 31//2 29//2
f 29//2 32//2 30//2
f 3//2 30//2 10//2
f 19//2 30//2 20//2
f 25//4 28//4 26//4
f 35//4 26//4 14//4
f 44//4 26//4 42//4
f 28//4 1//4 13//4
f 28//4 18//4 17//4
f 22//3 5//3 7//3
f 21//3 24//3 22//3
f 46//2 7//2 37//2
f 48//2 22//2 46//2
f 17//1 3//1 1//1
f 18//1 20//1 17//1
f 32//2 47//2 45//2
f 45//2 48//2 46//2
f 32//2 38//2 9//2
f 23//4 41//4 24//4
f 43//4 42//4 41//4
f 24//4 36//4 5//4
f 23//4 39//4 43//4
f 39//4 44//4 43//4
f 34//6 6//6 8//6
f 34//6 40//6 39//6
f 38//5 14//5 9//5
f 12//2 47//2 31//2
f 33//2 48//2 47//2
f 30//5 26//5 28//5
f 26//1 9//1 14//1
f 10//3 28//3 13//3
f 42//5 46//5 41//5
f 38//3 42//3 35//3
f 36//1 46//1 37//1
f 2//1 4//1 19//1
f 34//2 8//2 21//2
f 8//3 6//3 23//3
f 16//4 2//4 18//4
f 7//5 5//5 36//5
f 11//6 4//6 2//6
f 12//6 15//6 40//6
f 11//6 16//6 15//6
f 10//5 13//5 1//5
f 40//4 15//4 25//4
f 15//4 16//4 27//4
f 4//2 11//2 29//2
f 11//2 12//2 31//2
f 29//2 31//2 32//2
f 3//2 20//2 30//2
f 19//2 29//2 30//2
f 25//4 27//4 28//4
f 35//4 42//4 26//4
f 44//4 25//4 26//4
f 28//4 17//4 1//4
f 28//4 27//4 18//4
f 22//3 24//3 5//3
f 21//3 23//3 24//3
f 46//2 22//2 7//2
f 48//2 21//2 22//2
f 17//1 20//1 3//1
f 18//1 19//1 20//1
f 32//2 31//2 47//2
f 45//2 47//2 48//2
f 32//2 45//2 38//2
f 23//4 43//4 41//4
f 43//4 44//4 42//4
f 24//4 41//4 36//4
f 23//4 6//4 39//4
f 39//4 40//4 44//4
f 34//6 39//6 6//6
f 34//6 33//6 40//6
f 38//5 35//5 14//5
f 12//2 33//2 47//2
f 33//2 34//2 48//2
f 30//5 32//5 26//5
f 26//1 32//1 9//1
f 10//3 30//3 28//3
f 42//5 45//5 46//5
f 38//3 45//3 42//3
f 36//1 41//1 46//1
