# Blender v2.78 (sub 0) OBJ File: 'EvonoveTry.blend'
# www.blender.org
mtllib PareteCucinaSinistra.mtl
o PareteSinistra_001.002_Cube.005
v -7.433743 -0.002011 8.093922
v -7.433743 2.296885 8.093922
v -7.433743 1.977170 8.093922
v -7.433743 -0.002011 8.494052
v -7.433743 1.977170 8.494052
v -10.948441 -0.002011 8.093922
v -10.950252 2.296885 8.093922
v -10.950252 1.977170 8.093922
v -10.948441 -0.002011 8.494052
v -10.950252 2.296885 8.494052
v -10.950252 1.977170 8.494052
v -7.433743 2.296885 8.494052
vt 0.0000 0.0000
vt 0.0000 0.0000
vt 0.0000 0.0000
vt 0.0000 0.0000
vt 0.0000 0.0000
vt 0.0000 0.0000
vt 0.0000 0.0000
vt 0.0000 0.0000
vt 0.0000 0.0000
vt 0.0000 0.0000
vt 0.0103 0.3977
vt 0.0103 0.5965
vt 0.3981 0.0000
vt 0.8022 0.3977
vt 0.8022 0.5965
vt 0.4310 -0.0665
vt 0.4310 0.0785
vt 0.5690 0.0785
vt 0.5690 -0.0665
vt 0.4310 0.9765
vt 0.5690 0.9765
vt 0.3981 1.0000
vt -0.2355 1.0000
vt -0.2352 0.0000
vn 0.0000 0.0000 -1.0000
vn 0.0000 -1.0000 0.0000
vn 0.0000 1.0000 0.0000
vn 1.0000 0.0000 0.0000
vn 0.0000 0.0000 1.0000
vn -1.0000 0.0000 0.0000
vn -1.0000 -0.0009 0.0000
g PareteSinistra_001.002_Cube.005_PareteInterno
usemtl PareteInterno
s off
f 2/1/1 3/2/1 8/3/1 7/4/1
f 1/5/2 4/6/2 9/7/2 6/8/2
f 12/9/3 2/1/3 7/4/3 10/10/3
f 3/2/1 1/5/1 6/8/1 8/3/1
f 12/11/4 5/12/4 4/13/4 1/5/4 3/2/4 2/1/4
g PareteSinistra_001.002_Cube.005_Esterno
usemtl Esterno
f 5/12/5 12/11/5 10/14/5 11/15/5
f 7/16/6 8/17/6 11/18/6 10/19/6
f 8/17/7 6/20/7 9/21/7 11/18/7
f 4/13/5 5/22/5 11/23/5 9/24/5
