# Blender v2.78 (sub 0) OBJ File: ''
# www.blender.org
mtllib PareteSinistra.mtl
o PareteSinistra_Cube.670
v -10.950047 -0.002011 5.216042
v -10.950047 2.297989 5.216042
v -10.950047 -0.002011 4.873958
v -10.950047 2.297989 4.873958
v 12.580730 -0.002011 5.273958
v 12.580730 2.297989 5.273958
v 12.580730 -0.002011 4.873958
v 12.580730 2.297989 4.873958
v 8.127138 -0.002011 4.873958
v 3.097137 -0.002011 4.873958
v -2.572893 -0.002011 4.873958
v -2.572893 2.297989 4.873958
v 3.097137 2.297989 4.873958
v 8.127138 2.297989 4.873958
v -2.572893 -0.002011 5.273958
v 3.097137 -0.002011 5.273958
v 8.127138 -0.002011 5.273958
v 8.127138 2.297989 5.273958
v 3.097137 2.297989 5.273958
v -2.572893 2.297989 5.273958
v 8.550571 2.297989 4.873958
v 11.327571 2.297989 4.873958
v 8.550571 -0.002011 5.273958
v 11.327571 -0.002011 5.273958
v 11.327571 -0.002011 4.873958
v 8.550570 -0.002011 4.873958
v 11.327571 2.297989 5.273958
v 8.550570 2.297989 5.273958
v 12.580730 2.241025 4.873958
v 12.580730 1.145856 4.873958
v 12.580730 2.241025 5.273958
v 12.580730 1.145856 5.273958
v 8.127138 2.241025 5.273958
v 8.127138 1.145856 5.273958
v 3.097137 2.241025 5.273958
v 3.097137 1.145856 5.273958
v -2.572893 2.241025 5.273958
v -2.572893 1.145856 5.273958
v -2.572893 2.241025 4.873958
v -2.572893 1.145856 4.873958
v 3.097137 2.241025 4.873958
v 3.097137 1.145856 4.873958
v 8.127138 2.241025 4.873958
v 8.127138 1.145856 4.873958
v 11.327571 2.241025 5.273958
v 11.327571 1.145856 5.273958
v 8.550570 2.241025 5.273958
v 8.550570 1.145856 5.273958
v 8.550571 2.241025 4.873958
v 8.550570 1.145856 4.873958
v 11.327571 2.241025 4.873958
v 11.327571 1.145856 4.873958
v -8.144899 -0.002011 4.873958
v -8.144898 2.297989 4.873958
v -7.433743 2.297989 4.873958
v -8.144898 -0.002011 5.273958
v -10.950047 1.977170 5.216042
v -10.950047 2.296885 5.216042
v -10.950047 2.296885 4.873958
v -10.950047 1.977170 4.873958
v -8.144898 2.296885 4.873958
v -8.144898 1.977170 4.873958
v -7.433743 2.296885 4.873958
v -7.433743 1.977170 4.873958
v -8.144899 1.977170 5.226564
v -10.558101 -0.002011 4.873958
v -10.558101 2.297989 5.216042
v -10.558101 2.297989 4.873958
v -10.558101 -0.002011 5.216042
v -10.558101 1.977170 4.873958
v -10.558101 2.296885 4.873958
v -10.558101 1.977170 5.216042
v -10.950047 0.771192 4.873958
v -8.144899 0.771192 4.873958
v -8.144899 0.771192 5.256607
v -10.950047 0.771192 5.216042
v -10.558101 0.771192 4.873958
v -12.570403 -0.002011 5.216042
v -12.570403 2.297989 5.216042
v -12.570403 -0.002011 4.873958
v -12.570403 2.297989 4.873958
v -12.570403 1.977170 5.216042
v -12.570403 2.296885 5.216042
v -12.570403 2.296885 4.873958
v -12.570403 1.977170 4.873958
v -12.570403 0.771192 4.873958
v -12.570403 0.771192 5.216042
v -7.433743 1.977170 5.226042
v -7.433140 2.297989 5.216042
v -8.144898 0.663444 5.273958
v -10.558101 0.663444 5.216042
vt 6.3725 0.6538
vt 6.3725 0.3202
vt 6.5529 0.3202
vt 6.5529 0.6538
vt 0.0000 0.0000
vt 0.0000 0.0000
vt 0.0000 0.0000
vt 0.0000 0.0000
vt 0.0000 0.0000
vt 0.0000 0.0000
vt 0.0000 0.0000
vt 0.0000 0.0000
vt 0.0000 0.0000
vt 0.0000 0.0000
vt 0.0000 0.0000
vt 0.0000 0.0000
vt 0.0000 0.0000
vt 0.0000 0.0000
vt 0.0000 0.0000
vt 0.0000 0.0000
vt 0.0000 0.0000
vt 0.0000 0.0000
vt 0.0000 0.0000
vt 0.0000 0.0000
vt 0.0000 0.0000
vt 0.0000 0.0000
vt 0.0000 0.0000
vt 0.0000 0.0000
vt 0.0000 0.0000
vt 0.0000 0.0000
vt 0.0000 0.0000
vt 0.0000 0.0000
vt 0.0000 0.0000
vt 0.0000 0.0000
vt 0.0000 0.0000
vt 0.0000 0.0000
vt 0.0000 0.0000
vt 0.0000 0.0000
vt 0.0000 0.0000
vt 0.0000 0.0000
vt 0.0000 0.0000
vt 0.0000 0.0000
vt 0.0000 0.0000
vt 0.0000 0.0000
vt 0.0000 0.0000
vt 0.0000 0.0000
vt 0.0000 0.0000
vt 0.0000 0.0000
vt -12.2541 0.6553
vt -12.2541 1.1505
vt -12.5634 1.1505
vt -12.5634 0.6553
vt -12.1146 0.6553
vt -12.1146 1.1505
vt -12.1146 1.6231
vt -12.2541 1.6231
vt 0.0000 0.0000
vt 0.0000 0.0000
vt -13.1706 0.6553
vt -13.1706 1.1505
vt -13.8019 1.1505
vt -13.8019 0.6553
vt -13.1706 1.6231
vt -13.8020 1.6231
vt -12.6105 0.6553
vt -12.6105 1.1505
vt -12.6105 1.6231
vt -12.5634 1.6231
vt -9.3142 0.6553
vt -9.3142 1.1505
vt -9.3142 1.6231
vt 0.0000 0.0000
vt 0.0000 0.0000
vt 0.0000 0.0000
vt 0.0000 0.0000
vt 0.0000 0.0000
vt 0.0000 0.0000
vt 0.0000 0.0000
vt 0.0000 0.0000
vt 0.0000 0.0000
vt 0.0000 0.0000
vt 0.0000 0.0000
vt 0.0000 0.0000
vt 0.0000 0.0000
vt 0.0000 0.0000
vt 0.0000 0.0000
vt 0.0000 0.0000
vt 0.0000 0.0000
vt 0.0000 0.0000
vt 0.0000 0.0000
vt 0.0000 0.0000
vt 0.0000 0.0000
vt 0.0000 0.0000
vt 0.0000 0.0000
vt 0.0000 0.0000
vt 0.0000 0.0000
vt 0.0000 0.0000
vt 0.0000 0.0000
vt 0.0000 0.0000
vt 6.5529 -0.2001
vt 8.9479 -0.2001
vt 8.9479 0.3202
vt 6.5529 -0.3381
vt 8.9479 -0.3381
vt 8.9479 0.6538
vt 6.3725 -0.2001
vt 0.0000 0.0000
vt 0.0000 0.0000
vt 6.3725 -0.3381
vt 0.0000 0.0000
vt 0.0000 0.0000
vt 0.0000 0.0000
vt 0.0000 0.0000
vt 0.0000 0.0000
vt 0.0000 0.0000
vt 0.0000 0.0000
vn 0.0000 0.0000 1.0000
vn 0.0000 0.0000 -1.0000
vn 1.0000 0.0000 0.0000
vn 0.0000 -1.0000 0.0000
vn 0.0000 1.0000 0.0000
vn -1.0000 0.0000 0.0000
vn 0.0002 1.0000 -0.0000
vn -0.0016 0.0199 0.9998
vn -0.0240 0.0000 0.9997
vn -0.0142 0.0180 0.9997
vn 1.0000 -0.0010 -0.0009
usemtl PareteSinistra
s off
f 1/1/1 76/2/1 87/3/1 78/4/1
f 51/5/2 22/6/2 8/7/2 29/8/2
f 29/8/3 8/7/3 6/9/3 31/10/3
f 25/11/4 7/12/4 5/13/4 24/14/4
f 68/15/5 4/16/5 2/17/5 67/18/5
f 21/19/5 14/20/5 18/21/5 28/22/5
f 14/20/5 13/23/5 19/24/5 18/21/5
f 13/23/5 12/25/5 20/26/5 19/24/5
f 11/27/4 10/28/4 16/29/4 15/30/4
f 10/28/4 9/31/4 17/32/4 16/29/4
f 47/33/1 28/22/1 18/21/1 33/34/1
f 33/34/1 18/21/1 19/24/1 35/35/1
f 35/35/1 19/24/1 20/26/1 37/36/1
f 39/37/2 12/25/2 13/23/2 41/38/2
f 41/38/2 13/23/2 14/20/2 43/39/2
f 31/10/1 6/9/1 27/40/1 45/41/1
f 45/41/1 27/40/1 28/22/1 47/33/1
f 8/7/5 22/6/5 27/40/5 6/9/5
f 22/6/5 21/19/5 28/22/5 27/40/5
f 9/31/4 26/42/4 23/43/4 17/32/4
f 26/42/4 25/11/4 24/14/4 23/43/4
f 43/39/2 14/20/2 21/19/2 49/44/2
f 49/44/2 21/19/2 22/6/2 51/5/2
f 26/42/2 50/45/2 52/46/2 25/11/2
f 47/33/3 48/47/3 23/43/3 26/42/3 50/45/3 49/44/3
f 9/31/2 44/48/2 50/45/2 26/42/2
f 44/48/2 43/39/2 49/44/2 50/45/2
f 24/49/1 46/50/1 48/51/1 23/52/1
f 49/44/4 51/5/4 45/41/4 47/33/4
f 5/53/1 32/54/1 46/50/1 24/49/1
f 32/54/1 31/55/1 45/56/1 46/50/1
f 10/28/2 42/57/2 44/48/2 9/31/2
f 42/57/2 41/38/2 43/39/2 44/48/2
f 11/27/2 40/58/2 42/57/2 10/28/2
f 40/58/2 39/37/2 41/38/2 42/57/2
f 16/59/1 36/60/1 38/61/1 15/62/1
f 36/60/1 35/63/1 37/64/1 38/61/1
f 17/65/1 34/66/1 36/60/1 16/59/1
f 34/66/1 33/67/1 35/63/1 36/60/1
f 23/52/1 48/51/1 34/66/1 17/65/1
f 48/51/1 47/68/1 33/67/1 34/66/1
f 7/69/3 30/70/3 32/54/3 5/53/3
f 30/70/3 29/71/3 31/55/3 32/54/3
f 25/11/2 52/46/2 30/72/2 7/12/2
f 52/46/2 51/5/2 29/8/2 30/72/2
f 45/41/6 51/5/6 25/11/6 24/14/6 46/73/6
f 50/45/5 48/47/5 46/73/5 52/46/5
f 71/74/2 68/15/2 54/75/2 61/76/2
f 61/76/2 54/75/2 55/77/2 63/78/2
f 66/79/4 53/80/4 56/81/4 69/82/4
f 75/83/3 56/81/3 53/80/3 74/84/3
f 62/85/2 61/76/2 63/78/2 64/86/2
f 77/87/2 70/88/2 62/85/2 74/84/2
f 70/88/2 71/74/2 61/76/2 62/85/2
f 59/89/2 60/90/2 85/91/2 84/92/2
f 58/93/1 2/17/1 79/94/1 83/95/1
f 60/90/2 59/89/2 71/74/2 70/88/2
f 73/96/2 60/90/2 70/88/2 77/87/2
f 3/97/4 66/79/4 69/82/4 1/98/4
f 59/89/2 4/16/2 68/15/2 71/74/2
f 3/97/2 73/96/2 77/87/2 66/79/2
f 4/16/2 59/89/2 84/92/2 81/99/2
f 66/79/2 77/87/2 74/84/2 53/80/2
f 83/95/6 79/94/6 81/99/6 84/92/6
f 87/3/6 82/100/6 85/101/6 86/102/6
f 82/100/6 83/103/6 84/104/6 85/101/6
f 78/4/6 87/3/6 86/102/6 80/105/6
f 2/17/5 4/16/5 81/99/5 79/94/5
f 76/2/1 57/106/1 82/100/1 87/3/1
f 60/90/2 73/96/2 86/107/2 85/91/2
f 73/96/2 3/97/2 80/108/2 86/107/2
f 57/106/1 58/109/1 83/103/1 82/100/1
f 3/97/4 1/98/4 78/110/4 80/108/4
f 88/111/4 65/112/4 62/85/4 64/86/4
f 75/83/3 74/84/3 62/85/3 65/112/3
f 68/15/7 67/18/7 89/113/7 63/78/7 55/77/7 54/75/7
f 88/111/8 89/113/8 67/18/8 72/114/8 65/112/8
f 77/87/3 70/88/3 72/114/3 69/82/3 66/79/3
f 69/82/9 56/81/9 90/115/9 91/116/9
f 65/112/10 72/114/10 91/116/10 90/115/10
f 69/82/1 67/18/1 2/17/1 1/98/1
f 88/111/11 64/86/11 55/77/11 89/113/11
o Cube_019_Cube.010
v 2.598779 -0.002360 5.372891
v 2.598779 2.997640 5.372891
v 2.598779 -0.002360 4.772891
v 2.598779 2.997640 4.772891
v 2.998779 -0.002360 5.372891
v 2.998779 2.997640 5.372891
v 2.998779 -0.002360 4.772891
v 2.998779 2.997640 4.772891
vn -1.0000 0.0000 0.0000
vn 0.0000 0.0000 -1.0000
vn 1.0000 0.0000 0.0000
vn 0.0000 0.0000 1.0000
vn 0.0000 -1.0000 0.0000
vn 0.0000 1.0000 0.0000
usemtl PareteEsterna.007
s off
f 93//12 94//12 92//12
f 95//13 98//13 94//13
f 99//14 96//14 98//14
f 97//15 92//15 96//15
f 98//16 92//16 94//16
f 95//17 97//17 99//17
f 93//12 95//12 94//12
f 95//13 99//13 98//13
f 99//14 97//14 96//14
f 97//15 93//15 92//15
f 98//16 96//16 92//16
f 95//17 93//17 97//17
o Cube_041_Cube.008
v 6.880776 -0.002360 5.351614
v 6.880776 2.997640 5.351614
v 6.880776 -0.002360 4.882415
v 6.880776 2.997640 4.882415
v 7.280776 -0.002360 5.351614
v 7.280776 2.997640 5.351614
v 7.280776 -0.002360 4.882415
v 7.280776 2.997640 4.882415
vn -1.0000 0.0000 0.0000
vn 0.0000 0.0000 -1.0000
vn 1.0000 0.0000 0.0000
vn 0.0000 0.0000 1.0000
vn 0.0000 -1.0000 0.0000
vn 0.0000 1.0000 0.0000
usemtl PareteEsterna.007
s off
f 101//18 102//18 100//18
f 103//19 106//19 102//19
f 107//20 104//20 106//20
f 105//21 100//21 104//21
f 106//22 100//22 102//22
f 103//23 105//23 107//23
f 101//18 103//18 102//18
f 103//19 107//19 106//19
f 107//20 105//20 104//20
f 105//21 101//21 100//21
f 106//22 104//22 100//22
f 103//23 101//23 105//23
o Cube_042_Cube.007
v -2.576353 -0.002360 5.272891
v -2.576353 2.997640 5.272891
v -2.576353 -0.002360 4.872891
v -2.576353 2.997640 4.872891
v -2.176353 -0.002360 5.272891
v -2.176353 2.997640 5.272891
v -2.176353 -0.002360 4.872891
v -2.176353 2.997640 4.872891
vn -1.0000 0.0000 0.0000
vn 0.0000 0.0000 -1.0000
vn 1.0000 0.0000 0.0000
vn 0.0000 0.0000 1.0000
vn 0.0000 -1.0000 0.0000
vn 0.0000 1.0000 0.0000
usemtl PareteEsterna.007
s off
f 109//24 110//24 108//24
f 111//25 114//25 110//25
f 115//26 112//26 114//26
f 113//27 108//27 112//27
f 114//28 108//28 110//28
f 111//29 113//29 115//29
f 109//24 111//24 110//24
f 111//25 115//25 114//25
f 115//26 113//26 112//26
f 113//27 109//27 108//27
f 114//28 112//28 108//28
f 111//29 109//29 113//29
