# Blender v2.78 (sub 0) OBJ File: 'EvonoveTry.blend'
# www.blender.org
mtllib PareteDestra.mtl
o PareteDestra_Cube.669
v -12.569271 0.001834 -5.273159
v -12.569271 3.001834 -5.273159
v -12.569271 0.001834 -5.673159
v -12.569271 3.001834 -5.673159
v 12.580730 0.001834 -5.273159
v 12.580730 3.001834 -5.273159
v 12.580730 0.001834 -5.673159
v 12.580730 3.001834 -5.673159
vt 0.0000 0.0000
vt 0.0000 0.0000
vt 0.0000 0.0000
vt 0.0000 0.0000
vt 0.0000 0.0000
vt 0.0000 0.0000
vt 0.0000 0.0000
vt 0.0000 0.0000
vt 0.5660 0.9743
vt 0.5660 -0.1475
vt 0.4340 -0.1475
vt 0.4340 0.9743
vt 3.8993 0.9999
vt 3.8993 0.0001
vt -2.8993 0.0001
vt -2.8993 0.9999
vt 0.4050 -0.1059
vt 0.4050 1.0639
vt 0.5950 1.0639
vt 0.5950 -0.1059
vn 0.0000 0.0000 1.0000
vn 0.0000 -1.0000 0.0000
vn 0.0000 1.0000 0.0000
vn -1.0000 0.0000 0.0000
vn 0.0000 0.0000 -1.0000
vn 1.0000 0.0000 0.0000
g PareteDestra_Cube.669_PareteInterno
usemtl PareteInterno
s off
f 5/1/1 6/2/1 2/3/1 1/4/1
f 3/5/2 7/6/2 5/1/2 1/4/2
f 8/7/3 4/8/3 2/3/3 6/2/3
g PareteDestra_Cube.669_Esterno
usemtl Esterno
f 1/9/4 2/10/4 4/11/4 3/12/4
f 3/13/5 4/14/5 8/15/5 7/16/5
f 7/17/6 8/18/6 6/19/6 5/20/6
