# Blender v2.78 (sub 0) OBJ File: ''
# www.blender.org
mtllib PareteIngresso.mtl
o PareteIngresso_Cube.048
v 12.595500 -0.002586 4.873882
v 12.595500 2.297414 4.873882
v 12.195500 -0.002586 4.873882
v 12.195500 2.297414 4.873882
v 12.595498 -0.002586 -5.276119
v 12.595498 2.297414 -5.276119
v 12.195498 -0.002586 -5.276119
v 12.195498 2.297414 -5.276119
v 12.195498 -0.002586 -4.978379
v 12.195499 -0.002586 -0.133733
v 12.195499 2.297414 -0.133733
v 12.195498 2.297414 -4.978379
v 12.595499 -0.002586 -0.133733
v 12.595498 -0.002586 -4.978379
v 12.595498 2.297414 -4.978379
v 12.595499 2.297414 -0.133733
v 12.595498 3.002007 -5.276119
v 12.195498 3.002007 -5.276119
v 12.195498 3.002007 -4.978379
v 12.595498 3.002007 -4.978379
vt 0.0000 1.0000
vt -0.0000 0.0000
vt 1.0000 -0.0000
vt 1.0000 1.0000
vt 0.0000 1.0000
vt -0.0000 0.0000
vt 1.0000 -0.0000
vt 1.0000 1.0000
vt 0.0000 1.0000
vt -0.0000 0.0000
vt 1.0000 -0.0000
vt 1.0000 1.0000
vt 0.7343 0.0001
vt 0.7343 0.9999
vt -0.0056 0.9999
vt -0.0056 0.0001
vt -0.0000 0.0000
vt 1.0000 -0.0000
vt 1.0000 1.0000
vt 0.0000 1.0000
vt -0.0000 0.0000
vt 1.0000 -0.0000
vt 1.0000 1.0000
vt 0.0000 1.0000
vt 1.0000 -0.0000
vt 1.0000 1.0000
vt 0.0000 1.0000
vt -0.0000 0.0000
vt 1.0000 -0.0000
vt 1.0000 1.0000
vt 0.7786 0.0001
vt 0.7786 0.9999
vt 0.7346 0.9999
vt 0.7346 0.0001
vt 1.0000 -0.0000
vt 1.0000 1.0000
vt 0.0000 1.0000
vt -0.0000 0.0000
vt 1.0000 -0.0000
vt 1.0000 1.0000
vt 0.0000 1.0000
vt 1.0000 -0.0000
vt 0.0000 1.0000
vt -0.0000 0.0000
vt 1.0000 -0.0000
vt 1.0000 1.0000
vt 0.0000 1.0000
vt -0.0000 0.0000
vt 1.0000 1.0000
vt 0.0000 1.0000
vt 1.0000 -0.0000
vt -0.0000 0.0000
vt 1.0000 -0.0000
vt 1.0000 1.0000
vn 0.0000 0.0000 1.0000
vn -1.0000 0.0000 0.0000
vn 0.0000 0.0000 -1.0000
vn 1.0000 0.0000 -0.0000
vn 0.0000 -1.0000 0.0000
vn 0.0000 1.0000 -0.0000
usemtl PareteIngresso.001
s off
f 1/1/1 2/2/1 4/3/1 3/4/1
f 9/5/2 12/6/2 8/7/2 7/8/2
f 7/9/3 8/10/3 6/11/3 5/12/3
f 13/13/4 16/14/4 2/15/4 1/16/4
f 9/5/5 7/17/5 5/18/5 14/19/5
f 11/20/6 4/21/6 2/22/6 16/23/6
f 8/24/2 12/6/2 19/25/2 18/26/2
f 3/27/5 10/28/5 13/29/5 1/30/5
f 5/31/4 6/32/4 15/33/4 14/34/4
f 3/27/2 4/21/2 11/35/2 10/36/2
f 16/37/3 13/38/3 10/39/3 11/40/3
f 15/41/1 12/6/1 9/42/1 14/19/1
f 18/43/6 19/44/6 20/45/6 17/46/6
f 12/47/1 15/48/1 20/45/1 19/49/1
f 6/50/3 8/10/3 18/51/3 17/46/3
f 15/41/4 6/52/4 17/53/4 20/54/4
o Cube_040_Cube.003
v 12.112659 -0.002360 5.320220
v 12.112659 2.997640 5.320220
v 12.112659 -0.002360 4.820220
v 12.112659 2.997640 4.820220
v 12.612659 -0.002360 5.320220
v 12.612659 2.997640 5.320220
v 12.612659 -0.002360 4.820220
v 12.612659 2.997640 4.820220
vn -1.0000 0.0000 0.0000
vn 0.0000 0.0000 -1.0000
vn 1.0000 0.0000 0.0000
vn 0.0000 0.0000 1.0000
vn 0.0000 -1.0000 0.0000
vn 0.0000 1.0000 0.0000
usemtl PareteEsterna.003
s off
f 22//7 23//7 21//7
f 24//8 27//8 23//8
f 28//9 25//9 27//9
f 26//10 21//10 25//10
f 27//11 21//11 23//11
f 24//12 26//12 28//12
f 22//7 24//7 23//7
f 24//8 28//8 27//8
f 28//9 26//9 25//9
f 26//10 22//10 21//10
f 27//11 25//11 21//11
f 24//12 22//12 26//12
o Cube_049_Cube.001
v 12.229505 -0.002360 0.360456
v 12.229505 2.997640 0.360456
v 12.229505 -0.002360 -0.139544
v 12.229505 2.997640 -0.139544
v 12.629504 -0.002360 0.360456
v 12.629504 2.997640 0.360456
v 12.629504 -0.002360 -0.139544
v 12.629504 2.997640 -0.139544
vn -1.0000 0.0000 0.0000
vn 0.0000 0.0000 -1.0000
vn 1.0000 0.0000 0.0000
vn 0.0000 0.0000 1.0000
vn 0.0000 -1.0000 0.0000
vn 0.0000 1.0000 0.0000
usemtl PareteEsterna.003
s off
f 30//13 31//13 29//13
f 32//14 35//14 31//14
f 36//15 33//15 35//15
f 34//16 29//16 33//16
f 35//17 29//17 31//17
f 32//18 34//18 36//18
f 30//13 32//13 31//13
f 32//14 36//14 35//14
f 36//15 34//15 33//15
f 34//16 30//16 29//16
f 35//17 33//17 29//17
f 32//18 30//18 34//18
