# Blender v2.78 (sub 0) OBJ File: 'EvonoveTry.blend'
# www.blender.org
mtllib PareteWcCentrale.mtl
o Cube_046_Cube.134
v -12.239520 -0.004058 0.015069
v -12.239520 2.495942 0.015069
v -12.239520 -0.004058 -0.084931
v -12.239520 2.495942 -0.084931
v -9.941539 -0.004058 0.015069
v -9.941539 2.495942 0.015069
v -9.941539 -0.004058 -0.084931
v -9.941539 2.495942 -0.084931
vn -1.0000 0.0000 0.0000
vn 0.0000 0.0000 -1.0000
vn 1.0000 0.0000 0.0000
vn 0.0000 0.0000 1.0000
vn 0.0000 -1.0000 0.0000
vn 0.0000 1.0000 0.0000
g Cube_046_Cube.134_PareteEsterna
usemtl PareteEsterna
s off
f 2//1 3//1 1//1
f 4//2 7//2 3//2
f 8//3 5//3 7//3
f 6//4 1//4 5//4
f 7//5 1//5 3//5
f 4//6 6//6 8//6
f 2//1 4//1 3//1
f 4//2 8//2 7//2
f 8//3 6//3 5//3
f 6//4 2//4 1//4
f 7//5 5//5 1//5
f 4//6 2//6 6//6
