# Blender v2.78 (sub 0) OBJ File: 'EvonoveTry.blend'
# www.blender.org
mtllib PareteBagnoInizio.mtl
o Cube_048_Cube.224
v -8.266742 -0.003155 1.185887
v -8.266742 2.496845 1.185887
v -8.366742 -0.003155 1.185887
v -8.366742 2.496845 1.185887
v -8.266742 -0.003155 -1.814113
v -8.266742 2.496845 -1.814113
v -8.366742 -0.003155 -1.814113
v -8.366742 2.496845 -1.814113
v -8.366742 -0.003155 -1.498126
v -8.366742 -0.003155 -0.708712
v -8.366742 2.496845 -0.708712
v -8.366742 2.496845 -1.498126
v -8.266742 -0.003155 -0.708712
v -8.266742 -0.003155 -1.498126
v -8.266742 2.496845 -1.498126
v -8.266742 2.496845 -0.708712
v -8.266742 1.977314 1.185887
v -8.266742 2.496459 1.185887
v -8.366742 2.496459 1.185887
v -8.366742 1.977314 1.185887
v -8.366742 2.496459 -1.814113
v -8.366742 1.977314 -1.814113
v -8.266742 2.496459 -1.814113
v -8.266742 1.977314 -1.814113
v -8.266742 2.496459 -1.498126
v -8.266742 1.977314 -1.498126
v -8.266742 2.496459 -0.708712
v -8.266742 1.977314 -0.708712
v -8.366742 2.496459 -0.708712
v -8.366742 1.977314 -0.708712
v -8.366742 2.496459 -1.498126
v -8.366742 1.977314 -1.498126
vn 0.0000 0.0000 1.0000
vn -1.0000 0.0000 0.0000
vn 0.0000 0.0000 -1.0000
vn 1.0000 0.0000 0.0000
vn 0.0000 -1.0000 0.0000
vn 0.0000 1.0000 0.0000
g Cube_048_Cube.224_PareteEsterna
usemtl PareteEsterna
s off
f 2//1 19//1 18//1
f 12//2 21//2 31//2
f 8//3 23//3 21//3
f 16//4 18//4 27//4
f 7//5 14//5 9//5
f 4//6 16//6 11//6
f 12//6 6//6 8//6
f 11//6 15//6 12//6
f 10//5 1//5 3//5
f 6//4 25//4 23//4
f 15//4 27//4 25//4
f 4//2 29//2 19//2
f 11//2 31//2 29//2
f 28//3 10//3 30//3
f 29//2 32//2 30//2
f 3//2 30//2 10//2
f 19//2 30//2 20//2
f 26//6 22//6 32//6
f 25//4 28//4 26//4
f 5//4 26//4 14//4
f 23//4 26//4 24//4
f 28//4 1//4 13//4
f 28//4 18//4 17//4
f 22//3 5//3 7//3
f 21//3 24//3 22//3
f 32//2 7//2 9//2
f 32//2 21//2 22//2
f 17//1 3//1 1//1
f 18//1 20//1 17//1
f 30//5 26//5 28//5
f 2//1 4//1 19//1
f 12//2 8//2 21//2
f 8//3 6//3 23//3
f 16//4 2//4 18//4
f 7//5 5//5 14//5
f 4//6 2//6 16//6
f 12//6 15//6 6//6
f 11//6 16//6 15//6
f 10//5 13//5 1//5
f 6//4 15//4 25//4
f 15//4 16//4 27//4
f 4//2 11//2 29//2
f 11//2 12//2 31//2
f 11//3 16//3 28//3
f 28//3 13//3 10//3
f 30//3 11//3 28//3
f 29//2 31//2 32//2
f 3//2 20//2 30//2
f 19//2 29//2 30//2
f 32//1 9//1 14//1
f 26//6 24//6 22//6
f 32//1 14//1 26//1
f 25//4 27//4 28//4
f 5//4 24//4 26//4
f 23//4 25//4 26//4
f 28//4 17//4 1//4
f 28//4 27//4 18//4
f 22//3 24//3 5//3
f 21//3 23//3 24//3
f 32//2 22//2 7//2
f 32//2 31//2 21//2
f 17//1 20//1 3//1
f 18//1 19//1 20//1
f 30//5 32//5 26//5
f 32//5 24//5 26//5
