# Blender v2.78 (sub 0) OBJ File: 'EvonoveTry.blend'
# www.blender.org
mtllib PareteIngresso.mtl
o PareteIngresso_Cube.048
v 12.648390 -0.002586 4.873882
v 12.648390 2.297414 4.873882
v 12.253376 -0.002586 4.873882
v 12.253376 2.297414 4.873882
v 12.253375 -0.002586 -0.133733
v 12.253375 2.297414 -0.133733
v 12.648389 -0.002586 -0.133733
v 12.648389 2.297414 -0.133733
vt 0.0000 1.0000
vt -0.0000 0.0000
vt 1.0000 -0.0000
vt 1.0000 1.0000
vt 0.0000 1.0000
vt -0.0000 0.0000
vt 1.0000 -0.0000
vt 1.0000 1.0000
vt 0.0000 1.0000
vt -0.0000 0.0000
vt 1.0000 -0.0000
vt 1.0000 1.0000
vt 1.0000 -0.0000
vt 1.0000 1.0000
vt 0.0000 1.0000
vt -0.0000 0.0000
vt 1.0000 -0.0000
vt 1.0000 1.0000
vt 1.0483 0.0001
vt 1.0483 0.9999
vt -0.5549 0.9999
vt -0.5549 0.0001
vn 0.0000 0.0000 1.0000
vn 0.0000 1.0000 -0.0000
vn 0.0000 -1.0000 -0.0000
vn -1.0000 0.0000 0.0000
vn -0.0000 0.0000 -1.0000
vn 1.0000 0.0000 -0.0000
g PareteIngresso_Cube.048_PareteInterno
usemtl PareteInterno
s off
f 1/1/1 2/2/1 4/3/1 3/4/1
f 6/5/2 4/6/2 2/7/2 8/8/2
f 3/9/3 5/10/3 7/11/3 1/12/3
f 3/9/4 4/6/4 6/13/4 5/14/4
f 8/15/5 7/16/5 5/17/5 6/18/5
g PareteIngresso_Cube.048_Esterno
usemtl Esterno
f 7/19/6 8/20/6 2/21/6 1/22/6
