# Blender v2.78 (sub 0) OBJ File: ''
# www.blender.org
mtllib PareteCucina.mtl
o PareteSinistra_001.001_Cube.012
v -7.433743 -0.002011 8.094236
v -7.433743 1.977170 8.094236
v -6.948578 -0.002011 8.494366
v -7.433743 -0.002011 8.494366
v -6.948578 2.296885 8.494366
v -6.948578 1.977170 8.494366
v -7.433743 1.977170 8.494366
v -7.433743 2.296885 8.494366
v -7.433743 -0.002011 4.872501
v -6.948578 -0.002011 4.872501
v -6.948578 1.977170 4.872501
v -7.433743 1.977170 4.872501
v -6.948578 2.296885 4.872501
v -7.433743 2.296885 4.872501
v -6.948578 -0.002011 5.944039
v -6.948578 -0.002011 7.381568
v -6.948578 1.977170 5.944039
v -6.948578 1.977170 7.381568
v -7.433743 1.977170 7.381568
v -7.433743 1.977170 5.944039
v -7.433743 -0.002011 7.381568
v -7.433743 -0.002011 5.944039
v -6.948578 2.296885 7.381568
v -6.948578 2.296885 5.944039
v -7.433743 2.296885 5.944039
v -7.433743 2.296885 7.381568
v -6.948578 0.934357 8.494366
v -6.948578 0.913971 4.872501
v -7.433743 0.913971 4.872501
v -6.948578 0.913971 7.381568
v -6.948578 0.913971 5.944039
v -7.433743 0.913971 7.381568
v -7.433743 0.913971 5.944039
vt 0.0000 0.0000
vt 0.0000 0.0000
vt 0.0000 0.0000
vt 0.0000 0.0000
vt 0.0000 0.0000
vt 0.0000 0.0000
vt 0.0000 0.0000
vt 0.0000 0.0000
vt 0.0000 0.0000
vt 0.0000 0.0000
vt 0.7041 0.4048
vt 1.0000 0.4048
vt 1.0000 0.5681
vt 0.7041 0.5682
vt 0.0000 0.0000
vt 0.0000 0.0000
vt 0.0000 0.0000
vt 0.0000 0.0000
vt -0.0653 0.8420
vt -0.0653 0.6837
vt -0.0652 -0.2962
vt 0.0846 -0.2962
vt 0.0846 0.1674
vt 0.0846 0.6837
vt 0.0846 0.8420
vt 0.0000 0.0000
vt 0.0000 0.0000
vt 0.0000 0.0000
vt 0.0000 0.0000
vt 0.0000 0.4048
vt 0.3073 0.4048
vt 0.3073 0.5682
vt 0.0000 0.5682
vt 0.0000 0.0000
vt 0.0000 0.0000
vt 0.0000 0.0000
vt 0.0000 0.0000
vt 0.0000 0.0000
vt 0.0000 0.0000
vt 0.0018 0.4487
vt 0.0001 0.3515
vt 0.4656 0.1853
vt 0.0018 0.3515
vt 0.0000 -0.6065
vt 0.3073 -0.6065
vt 0.3073 -0.1385
vt 0.0000 -0.1280
vt 0.7041 -0.6065
vt 1.0000 -0.6065
vt 1.0000 -0.1385
vt 0.7041 -0.1385
vt 0.0000 0.0000
vt 0.0000 0.0000
vt 0.1541 0.8029
vt -0.1082 0.8029
vt -0.1082 0.2388
vt 0.1541 0.2388
vt 0.0000 0.0000
vt 0.0000 0.0000
vt 0.0000 0.0000
vt -0.0478 0.2431
vt 0.0896 0.2431
vt 0.0896 0.7569
vt -0.0478 0.7569
vt 0.0000 0.0000
vt 0.0000 0.0000
vt 0.1584 -0.0858
vt 0.1586 0.1033
vt 0.8416 0.1033
vt 0.8414 -0.0858
vt 0.0000 0.1045
vt 0.0000 -0.0574
vt 1.0000 -0.0574
vt 1.0000 0.1045
vt 0.3969 0.5690
vt 0.3969 0.7324
vt 0.0000 0.7324
vt 0.0000 0.5690
vt 0.0412 -0.1112
vt 0.9587 -0.1112
vt 0.9588 0.1287
vt 0.0413 0.1287
vn 0.0000 1.0000 0.0000
vn 0.0000 -1.0000 0.0000
vn -1.0000 0.0000 0.0000
vn 1.0000 0.0000 0.0000
vn 0.0000 0.0000 -1.0000
vn -0.0000 0.0000 1.0000
usemtl PareteCucina
s off
f 24/1/1 13/2/1 14/3/1 25/4/1
f 22/5/2 9/6/2 10/7/2 15/8/2
f 33/9/3 29/10/3 9/6/3 22/5/3
f 17/11/4 11/12/4 13/13/4 24/14/4
f 25/4/3 14/3/3 12/15/3 20/16/3
f 11/17/5 12/15/5 14/3/5 13/2/5
f 28/18/5 29/10/5 12/15/5 11/17/5
f 8/19/6 7/20/6 4/21/6 3/22/6 27/23/6 6/24/6 5/25/6
f 8/26/3 26/27/3 19/28/3 7/29/3
f 6/30/4 18/31/4 23/32/4 5/33/4
f 4/34/2 21/35/2 16/36/2 3/37/2
f 21/35/2 22/5/2 15/8/2 16/36/2
f 5/38/1 23/39/1 26/27/1 8/26/1
f 23/39/1 24/1/1 25/4/1 26/27/1
f 23/40/6 18/41/6 16/42/6 30/43/6
f 3/44/4 16/45/4 30/46/4 27/47/4
f 10/7/5 9/6/5 29/10/5 28/18/5
f 15/48/4 10/49/4 28/50/4 31/51/4
f 24/1/6 25/4/6 20/16/6 17/52/6
f 31/53/6 33/9/6 22/5/6 15/8/6
f 20/16/3 12/15/3 29/10/3 33/9/3
f 17/54/6 20/55/6 33/56/6 31/57/6
f 17/11/4 31/51/4 28/50/4 11/12/4
f 6/30/4 27/47/4 30/46/4 18/31/4
f 23/39/6 26/27/6 19/28/6 18/58/6
f 30/59/6 32/60/6 21/35/6 16/36/6
f 30/61/5 32/62/5 19/63/5 18/64/5
f 1/65/3 2/66/3 19/28/3 32/60/3 21/35/3 4/34/3
f 31/67/1 33/68/1 32/69/1 30/70/1
f 15/48/4 31/51/4 30/46/4 16/45/4
f 21/35/3 32/60/3 33/9/3 22/5/3
f 23/71/4 18/72/4 17/73/4 24/74/4
f 25/75/3 20/76/3 19/77/3 26/78/3
f 19/79/2 20/80/2 17/81/2 18/82/2
o PareteSinistra_001_Cube.011
v -10.950047 -0.002011 5.216042
v -10.950047 2.297989 5.216042
v -10.950047 1.977170 5.216042
v -10.950047 2.296885 5.216042
v -7.433743 -0.002011 8.094236
v -7.433743 2.296885 8.094236
v -7.433743 1.977170 8.094236
v -7.433743 -0.002011 8.494366
v -7.433743 1.977170 8.494366
v -10.558101 2.297989 5.216042
v -10.558101 -0.002011 5.216042
v -10.558101 1.977170 5.216042
v -10.558101 2.296885 5.216042
v -10.950047 -0.002011 8.097651
v -10.950047 1.977170 8.097651
v -10.950047 2.296885 8.094704
v -10.558101 2.297989 8.097651
v -10.558101 -0.002011 8.097651
v -10.558101 1.977170 8.097651
v -10.558101 2.296885 8.097651
v -10.948441 -0.002011 8.094236
v -10.950252 2.296885 8.094236
v -10.950252 1.977170 8.094236
v -10.948441 -0.002011 8.494366
v -10.950252 2.296885 8.494366
v -10.950252 1.977170 8.494366
v -10.950047 0.771192 5.216042
v -10.950047 0.771192 8.097651
v -7.433743 2.296885 8.494366
v -10.558101 0.663444 5.216042
v -10.558101 0.663444 8.097651
v -10.558101 0.663444 5.216042
v -10.373835 -0.002011 5.216042
v -10.373835 -0.002011 8.097651
v -10.373835 0.663444 5.216042
v -10.373835 0.663444 8.097651
vt 0.0000 0.0000
vt 0.0000 0.0000
vt 0.0000 0.0000
vt 0.0000 0.0000
vt 0.0000 0.0000
vt 0.0000 0.0000
vt 0.8521 0.3248
vt 0.8521 0.7468
vt 0.1479 0.7468
vt 0.1479 0.3248
vt 0.0000 0.0000
vt 0.0000 0.0000
vt 0.0000 0.0000
vt 0.0000 0.0000
vt 0.0000 0.0000
vt 0.0000 0.0000
vt 0.0000 0.0000
vt 0.6784 0.8622
vt 0.6784 1.0235
vt -0.5384 1.0235
vt -0.5384 0.8622
vt 0.0000 0.0000
vt 0.0000 0.0000
vt 0.0000 0.0000
vt 0.0000 0.0000
vt 0.0000 0.0000
vt 0.8521 -0.5080
vt 0.8521 -0.3335
vt 0.1479 -0.3335
vt 0.1486 -0.5079
vt 0.5635 0.0046
vt 0.5635 0.1718
vt 0.4365 0.1718
vt 0.4365 0.0046
vt 0.5635 1.2071
vt 0.4365 1.2071
vt 0.0000 0.0000
vt 0.0000 0.0000
vt 0.0000 0.0000
vt 0.0000 0.0000
vt 0.0000 0.0000
vt 0.0000 0.0000
vt 0.6784 -0.1360
vt -0.5378 -0.1360
vt -16.1877 -0.1759
vt -16.1300 -0.9415
vt -15.7261 -0.9387
vt -15.7835 -0.1730
vt 0.0000 0.0000
vt 0.0000 0.0000
vt 0.0000 0.0000
vt 0.0000 0.0000
vt 0.0000 0.0000
vt 0.0000 0.0000
vn -0.0028 1.0000 0.0004
vn -1.0000 0.0000 0.0000
vn 1.0000 0.0000 0.0000
vn 0.0000 0.0000 -1.0000
vn 0.0000 0.0000 1.0000
vn -0.0038 0.0046 1.0000
vn 0.0000 -1.0000 0.0000
vn -1.0000 -0.0009 0.0000
vn 0.0000 1.0000 0.0000
usemtl PareteCucina
s off
f 53/83/7 50/84/7 43/85/7 35/86/7 37/87/7 49/88/7
f 60/89/8 34/90/8 47/91/8 61/92/8
f 46/93/9 53/83/9 52/94/9 45/95/9
f 39/96/10 40/97/10 56/98/10 55/99/10
f 42/100/11 62/101/11 58/102/11 59/103/11
f 52/94/12 53/83/12 49/88/12 48/104/12
f 34/105/13 44/106/13 51/107/13 47/108/13
f 37/109/8 36/110/8 48/111/8 49/112/8
f 55/113/8 56/114/8 59/115/8 58/116/8
f 56/114/14 54/117/14 57/118/14 59/115/14
f 38/119/13 41/120/13 57/121/13 54/122/13
f 62/123/15 39/96/15 55/99/15 58/124/15
f 41/125/11 42/100/11 59/103/11 57/126/11
f 40/127/10 38/128/10 54/129/10 56/130/10
f 36/110/8 60/89/8 61/92/8 48/111/8
f 45/95/9 52/94/9 51/107/9 44/106/9
f 44/106/10 34/105/10 35/86/10 43/85/10
f 64/131/15 69/132/15 68/133/15 63/134/15
f 44/106/13 66/135/13 67/136/13 51/107/13
f 67/136/9 66/135/9 68/133/9 69/132/9
f 63/134/10 68/133/10 66/135/10 44/106/10
l 65 63
