# Blender v2.78 (sub 0) OBJ File: ''
# www.blender.org
mtllib PareteDestra.mtl
o PareteDestra_Cube.669
v -12.569271 0.001834 -5.273159
v -12.569271 3.001834 -5.273159
v -12.569271 0.001834 -5.673159
v -12.569271 3.001834 -5.673159
v 12.580730 0.001834 -5.273159
v 12.580730 3.001834 -5.273159
v 12.580730 0.001834 -5.673159
v 12.580730 3.001834 -5.673159
vt -2.1174 0.6074
vt -2.1174 -0.2740
vt -1.8941 -0.2740
vt -1.8941 0.6074
vt 2.8941 -0.2740
vt 2.8941 0.6074
vt 3.1174 -0.2740
vt 3.1174 0.6074
vt 0.0000 0.0000
vt 0.0000 0.0000
vt 0.0000 0.0000
vt 0.0000 0.0000
vt 0.0000 0.0000
vt 0.0000 0.0000
vt 0.0000 0.0000
vt 0.0000 0.0000
vn -1.0000 0.0000 0.0000
vn 0.0000 0.0000 -1.0000
vn 1.0000 0.0000 0.0000
vn 0.0000 0.0000 1.0000
vn 0.0000 -1.0000 0.0000
vn 0.0000 1.0000 0.0000
usemtl ParereDestra
s off
f 1/1/1 2/2/1 4/3/1 3/4/1
f 3/4/2 4/3/2 8/5/2 7/6/2
f 7/6/3 8/5/3 6/7/3 5/8/3
f 5/9/4 6/10/4 2/11/4 1/12/4
f 3/13/5 7/14/5 5/9/5 1/12/5
f 8/15/6 4/16/6 2/11/6 6/10/6
