# Blender v2.78 (sub 0) OBJ File: 'Evonove.blend'
# www.blender.org
mtllib Soffitto.mtl
o Plane.001_Plane.004
v -12.667141 2.987108 5.319775
v 12.489557 2.987108 5.319777
v -12.667141 2.987108 -5.672758
v 12.489557 2.987108 -5.672757
v -12.667142 2.987108 -5.478642
v -12.667142 2.987108 5.123348
v 12.489557 2.987108 5.123350
v 12.489557 2.987108 -5.478638
v -12.485695 2.987108 5.319774
v 12.269440 2.987108 5.319775
v 12.269440 2.987108 -5.672757
v -12.485695 2.987108 -5.672757
v 12.269440 2.987108 5.123348
v -12.485697 2.987108 5.123348
v 12.269440 2.987108 -5.478639
v -12.485697 2.987108 -5.478641
v -12.667142 3.132163 5.123348
v 12.269440 3.132163 5.319775
v 12.489557 3.132163 -5.478638
v 12.489557 3.132163 -5.672757
v -12.485695 3.132163 -5.672757
v -12.667141 3.132163 -5.672758
v -12.667142 3.132163 -5.478642
v 12.489557 3.132163 5.123350
v -12.485697 3.132163 5.123348
v -12.485697 3.132163 -5.478641
v 12.269440 3.132163 -5.672757
v 12.269440 3.132163 5.123348
v 12.269440 3.132163 -5.478639
v -12.667142 3.254888 5.123348
v -12.667141 3.254888 5.319775
v 12.269440 3.254888 5.319775
v 12.489557 3.254888 -5.478638
v 12.489557 3.254888 -5.672757
v -12.485695 3.254888 -5.672757
v -12.667141 3.254888 -5.672758
v -12.667142 3.254888 -5.478642
v 12.489557 3.254888 5.123350
v -12.485697 3.254888 5.123348
v -12.485697 3.254888 -5.478641
v -12.485695 3.254888 5.319774
v 12.269440 3.254888 -5.672757
v 12.269440 3.254888 5.123348
v 12.269440 3.254888 -5.478639
v -12.485692 3.132163 -6.674601
v -12.667139 3.132163 -6.674601
v -12.485692 3.254888 -6.674601
v -12.667139 3.254888 -6.674601
v 12.489559 3.132163 -6.674599
v 12.269442 3.132163 -6.674601
v 12.489559 3.254888 -6.674599
v 12.269442 3.254888 -6.674601
v 12.489557 3.132163 5.319777
v -12.667141 3.132163 5.319775
v -12.485695 3.132163 5.319774
v 12.489557 3.254888 5.319777
v 12.269440 3.132163 6.321059
v -12.667141 3.132163 6.321059
v -12.485695 3.132163 6.321058
v -12.667141 3.254888 6.321059
v -12.485695 3.254888 6.321058
v 12.269440 3.254888 6.321059
v 12.489557 3.254888 6.321060
v 13.503555 3.132163 -6.674599
v 13.503555 3.254888 -6.674599
v 13.503553 3.254888 5.319777
v 13.503553 3.254888 6.321061
v -13.671032 3.132163 5.123347
v -13.671030 3.132163 -5.672759
v -13.671032 3.132163 -5.478642
v -13.671028 3.254888 -6.674602
v -13.671030 3.254888 -5.672759
v -13.671031 3.254888 5.319775
v -13.671032 3.254888 5.123347
v -13.671032 3.254888 -5.478642
v -13.671028 3.132163 -6.674602
v -13.671031 3.132163 5.319775
v -13.671032 3.254888 6.321058
v -13.671032 3.132163 6.321058
v 12.489557 3.132163 6.321060
v 13.503553 3.132163 -5.672757
v 13.503553 3.254888 5.123351
v 13.503553 3.132163 6.321061
v 13.503553 3.132163 5.319777
v 13.503553 3.132163 -5.478638
v 13.503553 3.132163 5.123351
v 13.503553 3.254888 -5.478638
v 13.503553 3.254888 -5.672757
v 13.654116 3.132163 -5.478638
v 13.654116 3.132163 -5.672757
v 13.654116 3.132163 5.123351
v 13.654116 3.254888 -5.478638
v 13.654116 3.254888 -5.672757
v 13.654116 3.254888 5.123351
v 13.654118 3.132163 -6.674599
v 13.654118 3.254888 -6.674599
v 13.654116 3.254888 5.319777
v 13.654116 3.132163 5.319777
v 13.654116 3.254888 6.321061
v 13.654116 3.132163 6.321061
v 12.489557 3.254888 6.472144
v 13.503553 3.254888 6.472144
v 12.269440 3.132163 6.472143
v 12.489557 3.132163 6.472144
v -12.667141 3.132163 6.472143
v -12.485695 3.132163 6.472142
v -12.667141 3.254888 6.472143
v -12.485695 3.254888 6.472142
v 12.269440 3.254888 6.472143
v 13.503553 3.132163 6.472144
v -13.671032 3.254888 6.472142
v -13.671032 3.132163 6.472142
v 13.654116 3.254888 6.472144
v 13.654116 3.132163 6.472144
v -13.822659 3.132163 5.123347
v -13.822659 3.132163 -5.672759
v -13.822659 3.132163 -5.478642
v -13.822656 3.254888 -6.674602
v -13.822659 3.254888 -5.672759
v -13.822659 3.254888 5.123347
v -13.822659 3.254888 -5.478642
v -13.822656 3.132163 -6.674602
v -13.822659 3.254888 5.319774
v -13.822659 3.132163 5.319774
v -13.822659 3.254888 6.321058
v -13.822659 3.132163 6.321058
v -13.822659 3.254888 6.472142
v -13.822659 3.132163 6.472142
v 12.489559 3.132163 -6.825068
v -12.485692 3.132163 -6.825069
v -12.667138 3.132163 -6.825069
v -12.485692 3.254888 -6.825069
v -12.667138 3.254888 -6.825069
v 12.269442 3.132163 -6.825069
v 12.489559 3.254888 -6.825068
v 12.269442 3.254888 -6.825069
v 13.503555 3.254888 -6.825068
v -13.671028 3.132163 -6.825071
v -13.671028 3.254888 -6.825071
v 13.503555 3.132163 -6.825068
v 13.654118 3.132163 -6.825068
v 13.654118 3.254888 -6.825068
v -13.822656 3.132163 -6.825071
v -13.822656 3.254888 -6.825071
v 12.489559 2.681638 -6.674599
v 13.503555 2.681638 -6.674599
v -12.485692 2.681638 -6.674601
v -12.667139 2.681638 -6.674601
v -13.822656 2.681638 -6.825071
v -13.822656 2.681638 -6.674602
v 12.269442 2.681638 -6.674601
v 13.503555 2.681638 -6.825068
v 12.269440 2.681638 6.321059
v 12.489557 2.681638 6.321060
v -12.667141 2.681638 6.321059
v -12.485695 2.681638 6.321058
v 13.503553 2.681638 6.321061
v -13.671032 2.681638 5.123347
v -13.671030 2.681638 -5.672759
v -13.671032 2.681638 -5.478642
v -13.671031 2.681638 5.319775
v -13.822659 2.681638 6.472142
v -13.671032 2.681638 6.472142
v -13.671028 2.681638 -6.674602
v -13.671032 2.681638 6.321058
v 13.503553 2.681638 -5.478638
v 13.503553 2.681638 -5.672757
v 13.503553 2.681638 5.123351
v 13.654116 2.681638 6.321061
v 13.503553 2.681638 5.319777
v 13.654116 2.681638 -5.478638
v 13.654116 2.681638 -5.672757
v 13.654116 2.681638 5.319777
v 13.654116 2.681638 5.123351
v 13.654118 2.681638 -6.674599
v 12.269440 2.681638 6.472143
v 12.489557 2.681638 6.472144
v -12.667141 2.681638 6.472143
v -12.485695 2.681638 6.472142
v 13.503553 2.681638 6.472144
v 13.654116 2.681638 6.472144
v -13.822659 2.681638 5.123347
v -13.822659 2.681638 5.319774
v -13.822659 2.681638 -5.672759
v -13.822659 2.681638 -5.478642
v -13.822659 2.681638 6.321058
v 12.489559 2.681638 -6.825068
v -12.485692 2.681638 -6.825069
v -12.667138 2.681638 -6.825069
v 12.269442 2.681638 -6.825069
v -13.671028 2.681638 -6.825071
v 13.654118 2.681638 -6.825068
v -12.667142 2.987108 3.579890
v 12.489557 2.987108 3.579893
v -12.485697 2.987108 3.579891
v 12.269440 2.987108 3.579891
v -12.667142 3.132163 3.579890
v 12.489557 3.132163 3.579893
v -12.667142 3.254888 3.579890
v 12.489557 3.254888 3.579893
v 13.503553 3.132163 3.579894
v -13.671032 3.132163 3.579890
v -13.671032 3.254888 3.579890
v 13.503553 3.254888 3.579894
v 13.654116 3.132163 3.579894
v 13.654116 3.254888 3.579894
v -13.822659 3.132163 3.579890
v -13.822659 3.254888 3.579890
v -13.671032 2.681638 3.579890
v 13.503553 2.681638 3.579894
v 13.654116 2.681638 3.579894
v -13.822659 2.681638 3.579890
v 10.356750 2.987108 5.319775
v 10.356750 2.987108 -5.672757
v 10.356750 2.987108 5.123348
v 10.356750 2.987108 -5.478639
v 10.356750 3.132163 -5.672757
v 10.356750 3.254888 5.319775
v 10.356750 3.254888 -5.672757
v 10.356750 3.132163 -6.674601
v 10.356750 3.254888 -6.674601
v 10.356750 3.132163 5.319775
v 10.356750 3.132163 6.321059
v 10.356750 3.254888 6.321059
v 10.356750 3.132163 6.472142
v 10.356750 3.254888 6.472142
v 10.356750 3.132163 -6.825069
v 10.356750 3.254888 -6.825069
v 10.356750 2.681638 -6.674601
v 10.356750 2.681638 6.321059
v 10.356750 2.681638 6.472142
v 10.356750 2.681638 -6.825069
v 10.356750 2.987108 3.579891
v 10.356750 2.486628 -5.478639
v -12.485697 2.486628 -5.478641
v -12.485697 2.486628 3.579891
v 10.356750 2.486628 3.579891
vt -1.5645 3.8617
vt -1.5690 3.0839
vt 3.5387 3.0920
vt 3.5311 3.9098
vt -3.2188 2.9031
vt -3.2188 -2.5240
vt 4.0876 -2.5240
vt 4.0876 2.9031
vt -2.2049 -0.0863
vt 3.2049 -0.0863
vt 3.2049 0.1254
vt -2.2049 0.1254
vt 0.0000 0.0000
vt 0.0000 0.0000
vt 0.0000 0.0000
vt 0.0000 0.0000
vt 0.0000 0.0000
vt 0.0000 0.0000
vt 0.0000 0.0000
vt 0.0000 0.0000
vt 3.5370 -1.6347
vt 4.0652 -1.6469
vt 4.0735 3.0924
vt 4.0740 3.9265
vt -1.5582 -1.6362
vt -1.5581 -1.7600
vt 3.5341 -1.7596
vt -0.3124 -0.0468
vt 1.5741 -0.0468
vt 1.5741 0.1327
vt -0.3124 0.1327
vt 1.5825 0.1258
vt -0.3488 0.1258
vt -0.3488 -0.0399
vt 1.5825 -0.0399
vt -2.2499 -0.0880
vt 3.2499 -0.0880
vt 3.2499 0.1272
vt -2.2499 0.1272
vt 4.0618 -1.7550
vt 4.1215 -1.7597
vt 4.1243 -1.6532
vt 4.0753 4.0369
vt 4.1340 3.9227
vt 4.1366 4.0326
vt 4.1317 3.0912
vt -1.6198 3.0833
vt -1.6197 -1.6362
vt -1.6203 3.9926
vt -1.6197 3.8612
vt -1.5644 3.9931
vt 3.5303 4.0369
vt -1.6195 -1.7589
vt 0.0000 0.0000
vt 0.0000 0.0000
vt 0.0000 0.0000
vt 0.0000 0.0000
vt 0.0000 0.0000
vt 0.0000 0.0000
vt 0.0000 0.0000
vt 0.0000 0.0000
vt 0.0000 0.0000
vt 0.0000 0.0000
vt 0.0000 0.0000
vt 0.0000 0.0000
vt -2.4599 -4.8383
vt -3.3840 -4.5984
vt -3.4720 -4.7381
vt -2.4795 -4.9802
vt 4.2741 5.6085
vt 4.2963 5.5153
vt 4.4379 5.5565
vt 4.3837 5.6836
vt 4.1848 5.6375
vt 4.2564 5.7812
vt -2.4578 6.4651
vt -2.3654 6.4739
vt -2.3920 6.6053
vt -2.5196 6.5681
vt 4.3246 4.3972
vt 3.1888 -4.8759
vt 3.3394 -4.9550
vt 4.4845 4.3904
vt 3.1707 -4.9498
vt 3.2432 -5.0598
vt -3.4767 -4.5588
vt -3.4897 -4.4741
vt -3.6444 -4.5109
vt -3.6004 -4.6268
vt -1.5054 6.4082
vt -1.4914 6.5444
vt 3.0757 -4.9606
vt 3.1092 -5.1012
vt -2.6201 5.3744
vt -2.4809 6.3820
vt -2.6171 6.4525
vt -2.7747 5.3903
vt 0.0000 0.0000
vt 0.0000 0.0000
vt 0.0000 0.0000
vt -2.3414 2.0535
vt -2.3949 2.0543
vt -2.3958 1.9994
vt -2.3422 1.9986
vt 0.0000 0.0000
vt 0.0000 0.0000
vt 0.0000 0.0000
vt 0.0000 0.0000
vt 0.0000 0.0000
vt 0.0000 0.0000
vt 0.0000 0.0000
vt 0.0000 0.0000
vt 0.0000 0.0000
vt 0.0000 0.0000
vt 0.0000 0.0000
vt 0.0000 0.0000
vt 0.0000 0.0000
vt 0.0000 0.0000
vt 0.0000 0.0000
vt 0.0000 0.0000
vt 0.0000 0.0000
vt 0.0000 0.0000
vt 0.0000 0.0000
vt 0.0000 0.0000
vt 0.0000 0.0000
vt 0.0000 0.0000
vt 0.0000 0.0000
vt 0.0000 0.0000
vt 0.0000 0.0000
vt 0.0000 0.0000
vt 0.0000 0.0000
vt 0.0000 0.0000
vt 0.0000 0.0000
vt 0.0000 0.0000
vt 0.0000 0.0000
vt 0.0000 0.0000
vt 0.0000 0.0000
vt 0.0000 0.0000
vt 0.0000 0.0000
vt 0.0000 0.0000
vt 0.0000 0.0000
vt 0.0000 0.0000
vt 0.0000 0.0000
vt 0.0000 0.0000
vt 0.0000 0.0000
vt 0.0000 0.0000
vt 0.0000 0.0000
vt 0.0000 0.0000
vt 0.0000 0.0000
vt 0.0000 0.0000
vt 0.0000 0.0000
vt 0.0000 0.0000
vt 0.0000 0.0000
vt 0.0000 0.0000
vt 0.0000 0.0000
vt 0.0000 0.0000
vt 0.0000 0.0000
vt 0.0000 0.0000
vt 0.0000 0.0000
vt 0.0000 0.0000
vt 0.0000 0.0000
vt 0.0000 0.0000
vt 0.0000 0.0000
vt 0.0000 0.0000
vt 0.0000 0.0000
vt 0.0000 0.0000
vt 0.0000 0.0000
vt 0.0000 0.0000
vt 0.0000 0.0000
vt 0.0000 0.0000
vt 0.0000 0.0000
vt 0.0000 0.0000
vt 0.0000 0.0000
vt 0.0000 0.0000
vt 0.0000 0.0000
vt 0.0000 0.0000
vt 0.0000 0.0000
vt 0.0000 0.0000
vt 0.0000 0.0000
vt 0.0000 0.0000
vt 0.0000 0.0000
vt 0.0000 0.0000
vt 0.0000 0.0000
vt 0.0000 0.0000
vt 0.0000 0.0000
vt 0.0000 0.0000
vt 0.0000 0.0000
vt 0.0000 0.0000
vt 0.0000 0.0000
vt 0.0000 0.0000
vt 0.0000 0.0000
vt 0.0000 0.0000
vt 0.0000 0.0000
vt 0.0000 0.0000
vt 0.0000 0.0000
vt 0.0000 0.0000
vt 0.0000 0.0000
vt 0.0000 0.0000
vt 0.0000 0.0000
vt 0.0000 0.0000
vt 0.0000 0.0000
vt 0.0000 0.0000
vt 0.0000 0.0000
vt 0.0000 0.0000
vt 0.0000 0.0000
vt 0.0000 0.0000
vt 0.0000 0.0000
vt 0.0000 0.0000
vt 0.0000 0.0000
vt 0.0000 0.0000
vt 0.0000 0.0000
vt 0.0000 0.0000
vt 0.0000 0.0000
vt 0.0000 0.0000
vt 0.0000 0.0000
vt 0.0000 0.0000
vt 0.0000 0.0000
vt 0.0000 0.0000
vt 0.0000 0.0000
vt 0.0000 0.0000
vt 0.0000 0.0000
vt 0.0000 0.0000
vt 0.0000 0.0000
vt 0.0000 0.0000
vt 0.0000 0.0000
vt 0.0000 0.0000
vt 0.0000 0.0000
vt 0.0000 0.0000
vt 0.0000 0.0000
vt 0.0000 0.0000
vt 0.0000 0.0000
vt 0.0000 0.0000
vt 0.0000 0.0000
vt 0.0000 0.0000
vt 0.0000 0.0000
vt 0.0000 0.0000
vt 0.0000 0.0000
vt 0.0000 0.0000
vt 0.0000 0.0000
vt 0.0000 0.0000
vt 0.0000 0.0000
vt 0.0000 0.0000
vt 0.0000 0.0000
vt 0.0000 0.0000
vt 0.0000 0.0000
vt 0.0000 0.0000
vt 0.0000 0.0000
vt 0.0000 0.0000
vt 0.0000 0.0000
vt 0.0000 0.0000
vt 0.0000 0.0000
vt 0.0000 0.0000
vt 0.0000 0.0000
vt 0.0000 0.0000
vt 0.0000 0.0000
vt 0.0000 0.0000
vt 0.0000 0.0000
vt 0.0000 0.0000
vt 0.0000 0.0000
vt 0.0000 0.0000
vt 0.0000 0.0000
vt 0.0000 0.0000
vt 0.0000 0.0000
vt 0.0000 0.0000
vt 0.0000 0.0000
vt 0.0000 0.0000
vt 0.0000 0.0000
vt 0.0000 0.0000
vt 0.0000 0.0000
vt 0.0000 0.0000
vt 0.0000 0.0000
vt 0.0000 0.0000
vt 0.0000 0.0000
vt 0.0000 0.0000
vt 0.0000 0.0000
vt 0.0000 0.0000
vt 0.0000 0.0000
vt 0.0000 0.0000
vt 0.0000 0.0000
vt 0.0000 0.0000
vt 0.0000 0.0000
vt 0.0000 0.0000
vt 0.0000 0.0000
vt 0.0000 0.0000
vt 0.0000 0.0000
vt 0.0000 0.0000
vt 0.0000 0.0000
vt 0.0000 0.0000
vt 0.0000 0.0000
vn 0.0000 -1.0000 0.0000
vn -0.0000 0.0000 1.0000
vn 1.0000 0.0000 0.0000
vn 0.0000 0.0000 -1.0000
vn -1.0000 0.0000 0.0000
vn 0.0000 1.0000 0.0000
g Plane.001_Plane.004_soffitto
usemtl soffitto
s off
f 14/1/1 195/2/1 233/3/1 215/4/1
f 236/5/1 235/6/1 234/7/1 237/8/1
f 233/9/2 195/10/2 236/11/2 237/12/2
g Plane.001_Plane.004_soffitto_NONE
usemtl soffitto_NONE
f 29/13/3 44/14/3 43/15/3 28/16/3
f 25/17/1 26/18/1 29/13/1 28/16/1
f 26/18/4 40/19/4 44/14/4 29/13/4
f 28/16/2 43/15/2 39/20/2 25/17/2
g Plane.001_Plane.004_soffittoGrigio
usemtl soffittoGrigio
f 233/3/1 216/21/1 15/22/1 196/23/1
f 215/4/1 233/3/1 196/23/1 13/24/1
f 16/25/1 12/26/1 214/27/1 216/21/1
f 195/28/5 16/29/5 235/30/5 236/31/5
f 216/32/3 233/33/3 237/34/3 234/35/3
f 16/36/4 216/37/4 234/38/4 235/39/4
g Plane.001_Plane.004_soffittoGrigio_NONE
usemtl soffittoGrigio_NONE
f 15/22/1 11/40/1 4/41/1 8/42/1
f 10/43/1 13/24/1 7/44/1 2/45/1
f 196/23/1 15/22/1 8/42/1 194/46/1
f 193/47/1 5/48/1 16/25/1 195/2/1
f 1/49/1 6/50/1 14/1/1 9/51/1
f 213/52/1 215/4/1 13/24/1 10/43/1
f 5/48/1 3/53/1 12/26/1 16/25/1
f 216/21/1 214/27/1 11/40/1 15/22/1
f 22/54/1 23/55/1 70/56/1 69/57/1
f 25/17/5 39/20/5 40/19/5 26/18/5
f 217/58/1 21/59/1 45/60/1 220/61/1
f 53/62/4 56/63/4 66/64/4 84/65/4
f 193/66/5 6/67/5 17/68/5 197/69/5
f 4/70/4 11/71/4 27/72/4 20/73/4
f 8/74/3 4/70/3 20/73/3 19/75/3
f 2/76/3 7/77/3 24/78/3 53/79/3
f 214/80/4 12/81/4 21/82/4 217/83/4
f 12/81/4 3/84/4 22/85/4 21/82/4
f 1/86/2 9/87/2 55/88/2 54/89/2
f 6/67/5 1/86/5 54/89/5 17/68/5
f 194/90/3 8/74/3 19/75/3 198/91/3
f 3/84/5 5/92/5 23/93/5 22/85/5
f 213/94/2 10/95/2 18/96/2 222/97/2
f 10/95/2 2/76/2 53/79/2 18/96/2
f 44/14/6 33/98/6 34/99/6 42/100/6
f 32/101/6 56/102/6 38/103/6 43/104/6
f 43/15/6 38/105/6 200/106/6 33/98/6 44/14/6
f 30/107/6 39/20/6 40/19/6 37/108/6 199/109/6
f 31/110/6 41/111/6 39/20/6 30/107/6
f 41/111/6 218/112/6 32/113/6 43/15/6 39/20/6
f 37/108/6 40/19/6 35/114/6 36/115/6
f 40/19/6 44/14/6 42/100/6 219/116/6 35/114/6
f 42/100/6 34/99/6 51/117/6 52/118/6
f 54/119/1 58/120/1 79/121/1 77/122/1
f 36/115/6 35/114/6 47/123/6 48/124/6
f 51/117/6 34/99/6 88/125/6 65/126/6
f 19/127/1 20/128/1 81/129/1 85/130/1
f 118/131/6 71/132/6 139/133/6 144/134/6
f 69/57/3 70/56/3 160/135/3 159/136/3
f 95/137/3 90/138/3 172/139/3 175/140/3
f 51/117/6 65/126/6 137/141/6 135/142/6
f 60/143/6 31/110/6 73/144/6 78/145/6
f 219/116/6 42/100/6 52/118/6 221/146/6
f 21/59/1 22/54/1 46/147/1 45/60/1
f 56/63/6 63/148/6 67/149/6 66/64/6
f 20/128/1 27/150/1 50/151/1 49/152/1
f 18/153/1 53/62/1 80/154/1 57/155/1
f 222/156/1 18/153/1 57/155/1 223/157/1
f 41/111/6 31/110/6 60/143/6 61/158/6
f 100/159/3 99/160/3 113/161/3 114/162/3
f 64/163/2 49/152/2 145/164/2 146/165/2
f 75/166/6 72/167/6 119/168/6 121/169/6
f 20/128/1 49/152/1 64/163/1 81/129/1
f 218/112/6 41/111/6 61/158/6 224/170/6
f 56/63/6 32/113/6 62/171/6 63/148/6
f 37/108/6 36/115/6 72/167/6 75/166/6
f 54/119/1 55/172/1 59/173/1 58/120/1
f 38/105/6 56/63/6 66/64/6 82/174/6
f 224/170/6 61/158/6 108/175/6 226/176/6
f 53/62/1 24/177/1 86/178/1 84/65/1
f 200/106/6 38/105/6 82/174/6 204/179/6
f 221/146/6 52/118/6 136/180/6 228/181/6
f 198/182/1 19/127/1 85/130/1 201/183/1
f 34/99/6 33/98/6 87/184/6 88/125/6
f 78/145/6 73/144/6 123/185/6 125/186/6
f 68/187/3 77/122/3 161/188/3 158/189/3
f 73/144/6 74/190/6 120/191/6 123/185/6
f 73/144/4 77/122/4 124/192/4 123/185/4
f 112/193/2 111/194/2 127/195/2 128/196/2
f 199/109/6 37/108/6 75/166/6 203/197/6
f 197/198/1 17/199/1 68/187/1 202/200/1
f 31/110/4 54/119/4 77/122/4 73/144/4
f 31/110/6 30/107/6 74/190/6 73/144/6
f 99/160/6 67/149/6 102/201/6 113/161/6
f 17/199/1 54/119/1 77/122/1 68/187/1
f 46/147/1 22/54/1 69/57/1 76/202/1
f 36/115/6 48/124/6 71/132/6 72/167/6
f 43/15/6 44/14/6 40/19/6 39/20/6
f 80/154/1 53/62/1 84/65/1 83/203/1
f 81/129/5 64/163/5 146/165/5 167/204/5
f 207/205/5 117/206/5 185/207/5 212/208/5
f 143/209/4 138/210/4 191/211/4 149/212/4
f 204/179/6 82/174/6 94/213/6 206/214/6
f 61/158/6 60/143/6 107/215/6 108/175/6
f 89/216/3 90/138/3 93/217/3 92/218/3
f 98/219/3 91/220/3 94/213/3 97/221/3
f 205/222/3 89/216/3 92/218/3 206/214/3
f 93/217/3 90/138/3 95/137/3 96/223/3
f 98/219/3 97/221/3 99/160/3 100/159/3
f 66/64/6 67/149/6 99/160/6 97/221/6
f 66/64/4 97/221/4 98/219/4 84/65/4
f 117/206/5 116/224/5 184/225/5 185/207/5
f 122/226/5 118/131/5 144/134/5 143/209/5
f 65/126/6 88/125/6 93/217/6 96/223/6
f 124/192/5 115/227/5 182/228/5 183/229/5
f 88/125/6 87/184/6 92/218/6 93/217/6
f 82/174/6 66/64/6 97/221/6 94/213/6
f 225/230/2 103/231/2 109/232/2 226/176/2
f 105/233/2 106/234/2 108/175/2 107/215/2
f 103/231/2 104/235/2 101/236/2 109/232/2
f 101/236/2 104/235/2 110/237/2 102/201/2
f 105/233/2 107/215/2 111/194/2 112/193/2
f 102/201/2 110/237/2 114/162/2 113/161/2
f 83/203/3 67/149/3 102/201/3 110/237/3
f 77/122/4 161/188/4 183/229/4 124/192/4
f 60/143/6 78/145/6 111/194/6 107/215/6
f 80/154/4 83/203/4 157/238/4 154/239/4
f 140/240/4 141/241/4 192/242/4 152/243/4
f 110/237/3 180/244/3 157/238/3 83/203/3
f 67/149/6 63/148/6 101/236/6 102/201/6
f 225/230/2 106/234/2 179/245/2 231/246/2
f 63/148/6 62/171/6 109/232/6 101/236/6
f 125/186/5 126/247/5 128/196/5 127/195/5
f 116/224/5 117/206/5 121/169/5 119/168/5
f 207/205/5 115/227/5 120/191/5 208/248/5
f 115/227/5 124/192/5 123/185/5 120/191/5
f 116/224/5 119/168/5 118/131/5 122/226/5
f 123/185/5 124/192/5 126/247/5 125/186/5
f 111/194/6 78/145/6 125/186/6 127/195/6
f 79/121/4 58/120/4 155/249/4 165/250/4
f 203/197/6 75/166/6 121/169/6 208/248/6
f 106/234/2 105/233/2 178/251/2 179/245/2
f 104/235/2 103/231/2 176/252/2 177/253/2
f 46/147/2 76/202/2 164/254/2 148/255/2
f 72/167/6 71/132/6 118/131/6 119/168/6
f 64/163/3 140/240/3 137/141/3 65/126/3
f 133/256/4 131/257/4 138/210/4 139/133/4
f 130/258/4 131/257/4 133/256/4 132/259/4
f 129/260/4 134/261/4 136/180/4 135/142/4
f 227/262/4 130/258/4 132/259/4 228/181/4
f 129/260/4 135/142/4 137/141/4 140/240/4
f 140/240/4 137/141/4 142/263/4 141/241/4
f 139/133/4 138/210/4 143/209/4 144/134/4
f 205/222/3 91/220/3 174/264/3 211/265/3
f 138/210/4 131/257/4 189/266/4 191/211/4
f 91/220/3 98/219/3 173/267/3 174/264/3
f 48/124/6 47/123/6 132/259/6 133/256/6
f 71/132/6 48/124/6 133/256/6 139/133/6
f 96/223/3 95/137/3 141/241/3 142/263/3
f 65/126/6 96/223/6 142/263/6 137/141/6
f 52/118/6 51/117/6 135/142/6 136/180/6
f 77/122/3 79/121/3 165/250/3 161/188/3
f 100/159/3 114/162/3 181/268/3 169/269/3
f 229/270/1 147/271/1 188/272/1 232/273/1
f 145/164/1 151/274/1 190/275/1 187/276/1
f 153/277/1 154/239/1 177/253/1 176/252/1
f 165/250/1 163/278/1 162/279/1 186/280/1
f 170/281/1 168/282/1 174/264/1 173/267/1
f 157/238/1 170/281/1 173/267/1 169/269/1
f 166/283/1 167/204/1 172/139/1 171/284/1
f 210/285/1 166/283/1 171/284/1 211/265/1
f 167/204/1 146/165/1 175/140/1 172/139/1
f 155/249/1 156/286/1 179/245/1 178/251/1
f 230/287/1 153/277/1 176/252/1 231/246/1
f 154/239/1 157/238/1 180/244/1 177/253/1
f 157/238/1 169/269/1 181/268/1 180/244/1
f 165/250/1 155/249/1 178/251/1 163/278/1
f 158/189/1 161/188/1 183/229/1 182/228/1
f 159/136/1 160/135/1 185/207/1 184/225/1
f 161/188/1 165/250/1 186/280/1 183/229/1
f 209/288/1 158/189/1 182/228/1 212/208/1
f 164/254/1 159/136/1 184/225/1 150/289/1
f 148/255/1 164/254/1 191/211/1 189/266/1
f 146/165/1 145/164/1 187/276/1 152/243/1
f 164/254/1 150/289/1 149/212/1 191/211/1
f 175/140/1 146/165/1 152/243/1 192/242/1
f 147/271/1 148/255/1 189/266/1 188/272/1
f 202/200/3 68/187/3 158/189/3 209/288/3
f 83/203/5 84/65/5 170/281/5 157/238/5
f 129/260/4 140/240/4 152/243/4 187/276/4
f 45/60/2 46/147/2 148/255/2 147/271/2
f 110/237/2 104/235/2 177/253/2 180/244/2
f 131/257/4 130/258/4 188/272/4 189/266/4
f 98/219/3 100/159/3 169/269/3 173/267/3
f 122/226/5 143/209/5 149/212/5 150/289/5
f 49/152/2 50/151/2 151/274/2 145/164/2
f 105/233/2 112/193/2 163/278/2 178/251/2
f 134/261/4 129/260/4 187/276/4 190/275/4
f 220/61/2 45/60/2 147/271/2 229/270/2
f 227/262/4 134/261/4 190/275/4 232/273/4
f 114/162/2 110/237/2 180/244/2 181/268/2
f 140/240/3 64/163/3 146/165/3 152/243/3
f 57/155/4 80/154/4 154/239/4 153/277/4
f 116/224/5 122/226/5 150/289/5 184/225/5
f 84/65/4 98/219/4 173/267/4 170/281/4
f 58/120/4 59/173/4 156/286/4 155/249/4
f 112/193/2 128/196/2 162/279/2 163/278/2
f 141/241/3 95/137/3 175/140/3 192/242/3
f 223/157/4 57/155/4 153/277/4 230/287/4
f 76/202/3 69/57/3 159/136/3 164/254/3
f 126/247/5 124/192/5 183/229/5 186/280/5
f 85/130/5 81/129/5 167/204/5 166/283/5
f 84/65/5 86/178/5 168/282/5 170/281/5
f 128/196/5 126/247/5 186/280/5 162/279/5
f 90/138/3 89/216/3 171/284/3 172/139/3
f 201/183/5 85/130/5 166/283/5 210/285/5
f 86/178/5 201/183/5 210/285/5 168/282/5
f 70/56/3 202/200/3 209/288/3 160/135/3
f 160/135/1 209/288/1 212/208/1 185/207/1
f 168/282/1 210/285/1 211/265/1 174/264/1
f 89/216/3 205/222/3 211/265/3 171/284/3
f 74/190/6 203/197/6 208/248/6 120/191/6
f 117/206/5 207/205/5 208/248/5 121/169/5
f 91/220/3 205/222/3 206/214/3 94/213/3
f 87/184/6 204/179/6 206/214/6 92/218/6
f 115/227/5 207/205/5 212/208/5 182/228/5
f 23/55/1 197/198/1 202/200/1 70/56/1
f 30/107/6 199/109/6 203/197/6 74/190/6
f 24/177/1 198/182/1 201/183/1 86/178/1
f 33/98/6 200/106/6 204/179/6 87/184/6
f 7/77/3 194/90/3 198/91/3 24/78/3
f 5/92/5 193/66/5 197/69/5 23/93/5
f 6/50/1 193/47/1 195/2/1 14/1/1
f 13/24/1 196/23/1 194/46/1 7/44/1
f 59/173/4 223/157/4 230/287/4 156/286/4
f 130/258/4 227/262/4 232/273/4 188/272/4
f 50/151/2 220/61/2 229/270/2 151/274/2
f 156/286/1 230/287/1 231/246/1 179/245/1
f 151/274/1 229/270/1 232/273/1 190/275/1
f 134/261/4 227/262/4 228/181/4 136/180/4
f 103/231/2 225/230/2 231/246/2 176/252/2
f 106/234/2 225/230/2 226/176/2 108/175/2
f 47/123/6 221/146/6 228/181/6 132/259/6
f 62/171/6 224/170/6 226/176/6 109/232/6
f 32/113/6 218/112/6 224/170/6 62/171/6
f 55/172/1 222/156/1 223/157/1 59/173/1
f 35/114/6 219/116/6 221/146/6 47/123/6
f 9/87/2 213/94/2 222/97/2 55/88/2
f 11/71/4 214/80/4 217/83/4 27/72/4
f 27/150/1 217/58/1 220/61/1 50/151/1
f 9/51/1 14/1/1 215/4/1 213/52/1
